<svg xmlns="http://www.w3.org/2000/svg" viewBox="0 0 512 512" width="512" height="512" shape-rendering="crispEdges"><rect x="128" y="235" width="213" height="1" fill="#000000"/><rect x="128" y="236" width="213" height="1" fill="#000000"/><rect x="128" y="237" width="213" height="1" fill="#000000"/><rect x="128" y="238" width="213" height="1" fill="#000000"/><rect x="128" y="239" width="213" height="1" fill="#000000"/><rect x="128" y="240" width="213" height="1" fill="#000000"/><rect x="128" y="241" width="213" height="1" fill="#000000"/><rect x="128" y="242" width="213" height="1" fill="#000000"/><rect x="128" y="243" width="213" height="1" fill="#000000"/><rect x="128" y="244" width="213" height="1" fill="#000000"/><rect x="128" y="245" width="213" height="1" fill="#000000"/><rect x="128" y="246" width="213" height="1" fill="#000000"/><rect x="128" y="247" width="213" height="1" fill="#000000"/><rect x="128" y="248" width="213" height="1" fill="#000000"/><rect x="128" y="249" width="213" height="1" fill="#000000"/><rect x="128" y="250" width="213" height="1" fill="#000000"/><rect x="128" y="251" width="213" height="1" fill="#000000"/><rect x="128" y="252" width="213" height="1" fill="#000000"/><rect x="128" y="253" width="213" height="1" fill="#000000"/><rect x="128" y="254" width="213" height="1" fill="#000000"/><rect x="128" y="255" width="213" height="1" fill="#000000"/><rect x="128" y="256" width="21" height="1" fill="#000000"/><rect x="192" y="256" width="43" height="1" fill="#000000"/><rect x="299" y="256" width="42" height="1" fill="#000000"/><rect x="128" y="257" width="21" height="1" fill="#000000"/><rect x="192" y="257" width="43" height="1" fill="#000000"/><rect x="299" y="257" width="42" height="1" fill="#000000"/><rect x="128" y="258" width="21" height="1" fill="#000000"/><rect x="192" y="258" width="43" height="1" fill="#000000"/><rect x="299" y="258" width="42" height="1" fill="#000000"/><rect x="128" y="259" width="21" height="1" fill="#000000"/><rect x="192" y="259" width="43" height="1" fill="#000000"/><rect x="299" y="259" width="42" height="1" fill="#000000"/><rect x="128" y="260" width="21" height="1" fill="#000000"/><rect x="192" y="260" width="43" height="1" fill="#000000"/><rect x="299" y="260" width="42" height="1" fill="#000000"/><rect x="128" y="261" width="21" height="1" fill="#000000"/><rect x="192" y="261" width="43" height="1" fill="#000000"/><rect x="299" y="261" width="42" height="1" fill="#000000"/><rect x="128" y="262" width="21" height="1" fill="#000000"/><rect x="192" y="262" width="43" height="1" fill="#000000"/><rect x="299" y="262" width="42" height="1" fill="#000000"/><rect x="128" y="263" width="21" height="1" fill="#000000"/><rect x="192" y="263" width="43" height="1" fill="#000000"/><rect x="299" y="263" width="42" height="1" fill="#000000"/><rect x="128" y="264" width="21" height="1" fill="#000000"/><rect x="192" y="264" width="43" height="1" fill="#000000"/><rect x="299" y="264" width="42" height="1" fill="#000000"/><rect x="128" y="265" width="21" height="1" fill="#000000"/><rect x="192" y="265" width="43" height="1" fill="#000000"/><rect x="299" y="265" width="42" height="1" fill="#000000"/><rect x="128" y="266" width="21" height="1" fill="#000000"/><rect x="192" y="266" width="43" height="1" fill="#000000"/><rect x="299" y="266" width="42" height="1" fill="#000000"/><rect x="128" y="267" width="21" height="1" fill="#000000"/><rect x="192" y="267" width="43" height="1" fill="#000000"/><rect x="299" y="267" width="42" height="1" fill="#000000"/><rect x="128" y="268" width="21" height="1" fill="#000000"/><rect x="192" y="268" width="43" height="1" fill="#000000"/><rect x="299" y="268" width="42" height="1" fill="#000000"/><rect x="128" y="269" width="21" height="1" fill="#000000"/><rect x="192" y="269" width="43" height="1" fill="#000000"/><rect x="299" y="269" width="42" height="1" fill="#000000"/><rect x="128" y="270" width="21" height="1" fill="#000000"/><rect x="192" y="270" width="43" height="1" fill="#000000"/><rect x="299" y="270" width="42" height="1" fill="#000000"/><rect x="128" y="271" width="21" height="1" fill="#000000"/><rect x="192" y="271" width="43" height="1" fill="#000000"/><rect x="299" y="271" width="42" height="1" fill="#000000"/><rect x="128" y="272" width="21" height="1" fill="#000000"/><rect x="192" y="272" width="43" height="1" fill="#000000"/><rect x="299" y="272" width="42" height="1" fill="#000000"/><rect x="128" y="273" width="21" height="1" fill="#000000"/><rect x="192" y="273" width="43" height="1" fill="#000000"/><rect x="299" y="273" width="42" height="1" fill="#000000"/><rect x="128" y="274" width="21" height="1" fill="#000000"/><rect x="192" y="274" width="43" height="1" fill="#000000"/><rect x="299" y="274" width="42" height="1" fill="#000000"/><rect x="128" y="275" width="21" height="1" fill="#000000"/><rect x="192" y="275" width="43" height="1" fill="#000000"/><rect x="299" y="275" width="42" height="1" fill="#000000"/><rect x="128" y="276" width="21" height="1" fill="#000000"/><rect x="192" y="276" width="43" height="1" fill="#000000"/><rect x="299" y="276" width="42" height="1" fill="#000000"/><rect x="192" y="277" width="43" height="1" fill="#000000"/><rect x="299" y="277" width="42" height="1" fill="#000000"/><rect x="192" y="278" width="43" height="1" fill="#000000"/><rect x="299" y="278" width="42" height="1" fill="#000000"/><rect x="192" y="279" width="43" height="1" fill="#000000"/><rect x="299" y="279" width="42" height="1" fill="#000000"/><rect x="192" y="280" width="43" height="1" fill="#000000"/><rect x="299" y="280" width="42" height="1" fill="#000000"/><rect x="192" y="281" width="43" height="1" fill="#000000"/><rect x="299" y="281" width="42" height="1" fill="#000000"/><rect x="192" y="282" width="43" height="1" fill="#000000"/><rect x="299" y="282" width="42" height="1" fill="#000000"/><rect x="192" y="283" width="43" height="1" fill="#000000"/><rect x="299" y="283" width="42" height="1" fill="#000000"/><rect x="192" y="284" width="43" height="1" fill="#000000"/><rect x="299" y="284" width="42" height="1" fill="#000000"/><rect x="192" y="285" width="43" height="1" fill="#000000"/><rect x="299" y="285" width="42" height="1" fill="#000000"/><rect x="192" y="286" width="43" height="1" fill="#000000"/><rect x="299" y="286" width="42" height="1" fill="#000000"/><rect x="192" y="287" width="43" height="1" fill="#000000"/><rect x="299" y="287" width="42" height="1" fill="#000000"/><rect x="192" y="288" width="43" height="1" fill="#000000"/><rect x="299" y="288" width="42" height="1" fill="#000000"/><rect x="192" y="289" width="43" height="1" fill="#000000"/><rect x="299" y="289" width="42" height="1" fill="#000000"/><rect x="192" y="290" width="43" height="1" fill="#000000"/><rect x="299" y="290" width="42" height="1" fill="#000000"/><rect x="192" y="291" width="43" height="1" fill="#000000"/><rect x="299" y="291" width="42" height="1" fill="#000000"/><rect x="192" y="292" width="43" height="1" fill="#000000"/><rect x="299" y="292" width="42" height="1" fill="#000000"/><rect x="192" y="293" width="43" height="1" fill="#000000"/><rect x="299" y="293" width="42" height="1" fill="#000000"/><rect x="192" y="294" width="43" height="1" fill="#000000"/><rect x="299" y="294" width="42" height="1" fill="#000000"/><rect x="192" y="295" width="43" height="1" fill="#000000"/><rect x="299" y="295" width="42" height="1" fill="#000000"/><rect x="192" y="296" width="43" height="1" fill="#000000"/><rect x="299" y="296" width="42" height="1" fill="#000000"/><rect x="192" y="297" width="43" height="1" fill="#000000"/><rect x="299" y="297" width="42" height="1" fill="#000000"/><rect x="192" y="298" width="43" height="1" fill="#000000"/><rect x="299" y="298" width="42" height="1" fill="#000000"/></svg>