<svg xmlns="http://www.w3.org/2000/svg" viewBox="0 0 512 512" width="512" height="512" shape-rendering="crispEdges"><rect x="235" y="384" width="21" height="1" fill="#FFFFFF"/><rect x="277" y="384" width="22" height="1" fill="#FFFFFF"/><rect x="235" y="385" width="21" height="1" fill="#FFFFFF"/><rect x="277" y="385" width="22" height="1" fill="#FFFFFF"/><rect x="235" y="386" width="21" height="1" fill="#FFFFFF"/><rect x="277" y="386" width="22" height="1" fill="#FFFFFF"/><rect x="235" y="387" width="21" height="1" fill="#FFFFFF"/><rect x="277" y="387" width="22" height="1" fill="#FFFFFF"/><rect x="235" y="388" width="21" height="1" fill="#FFFFFF"/><rect x="277" y="388" width="22" height="1" fill="#FFFFFF"/><rect x="235" y="389" width="21" height="1" fill="#FFFFFF"/><rect x="277" y="389" width="22" height="1" fill="#FFFFFF"/><rect x="235" y="390" width="21" height="1" fill="#FFFFFF"/><rect x="277" y="390" width="22" height="1" fill="#FFFFFF"/><rect x="235" y="391" width="21" height="1" fill="#FFFFFF"/><rect x="277" y="391" width="22" height="1" fill="#FFFFFF"/><rect x="235" y="392" width="21" height="1" fill="#FFFFFF"/><rect x="277" y="392" width="22" height="1" fill="#FFFFFF"/><rect x="235" y="393" width="21" height="1" fill="#FFFFFF"/><rect x="277" y="393" width="22" height="1" fill="#FFFFFF"/><rect x="235" y="394" width="21" height="1" fill="#FFFFFF"/><rect x="277" y="394" width="22" height="1" fill="#FFFFFF"/><rect x="235" y="395" width="21" height="1" fill="#FFFFFF"/><rect x="277" y="395" width="22" height="1" fill="#FFFFFF"/><rect x="235" y="396" width="21" height="1" fill="#FFFFFF"/><rect x="277" y="396" width="22" height="1" fill="#FFFFFF"/><rect x="235" y="397" width="21" height="1" fill="#FFFFFF"/><rect x="277" y="397" width="22" height="1" fill="#FFFFFF"/><rect x="235" y="398" width="21" height="1" fill="#FFFFFF"/><rect x="277" y="398" width="22" height="1" fill="#FFFFFF"/><rect x="235" y="399" width="21" height="1" fill="#FFFFFF"/><rect x="277" y="399" width="22" height="1" fill="#FFFFFF"/><rect x="235" y="400" width="21" height="1" fill="#FFFFFF"/><rect x="277" y="400" width="22" height="1" fill="#FFFFFF"/><rect x="235" y="401" width="21" height="1" fill="#FFFFFF"/><rect x="277" y="401" width="22" height="1" fill="#FFFFFF"/><rect x="235" y="402" width="21" height="1" fill="#FFFFFF"/><rect x="277" y="402" width="22" height="1" fill="#FFFFFF"/><rect x="235" y="403" width="21" height="1" fill="#FFFFFF"/><rect x="277" y="403" width="22" height="1" fill="#FFFFFF"/><rect x="235" y="404" width="21" height="1" fill="#FFFFFF"/><rect x="277" y="404" width="22" height="1" fill="#FFFFFF"/></svg>