<svg xmlns="http://www.w3.org/2000/svg" viewBox="0 0 512 512" width="512" height="512" shape-rendering="crispEdges"><rect x="235" y="384" width="64" height="1" fill="#000000"/><rect x="235" y="385" width="64" height="1" fill="#000000"/><rect x="235" y="386" width="64" height="1" fill="#000000"/><rect x="235" y="387" width="64" height="1" fill="#000000"/><rect x="235" y="388" width="64" height="1" fill="#000000"/><rect x="235" y="389" width="64" height="1" fill="#000000"/><rect x="235" y="390" width="64" height="1" fill="#000000"/><rect x="235" y="391" width="64" height="1" fill="#000000"/><rect x="235" y="392" width="64" height="1" fill="#000000"/><rect x="235" y="393" width="64" height="1" fill="#000000"/><rect x="235" y="394" width="64" height="1" fill="#000000"/><rect x="235" y="395" width="64" height="1" fill="#000000"/><rect x="235" y="396" width="64" height="1" fill="#000000"/><rect x="235" y="397" width="64" height="1" fill="#000000"/><rect x="235" y="398" width="64" height="1" fill="#000000"/><rect x="235" y="399" width="64" height="1" fill="#000000"/><rect x="235" y="400" width="64" height="1" fill="#000000"/><rect x="235" y="401" width="64" height="1" fill="#000000"/><rect x="235" y="402" width="64" height="1" fill="#000000"/><rect x="235" y="403" width="64" height="1" fill="#000000"/><rect x="235" y="404" width="64" height="1" fill="#000000"/><rect x="213" y="405" width="22" height="1" fill="#000000"/><rect x="213" y="406" width="22" height="1" fill="#000000"/><rect x="213" y="407" width="22" height="1" fill="#000000"/><rect x="213" y="408" width="22" height="1" fill="#000000"/><rect x="213" y="409" width="22" height="1" fill="#000000"/><rect x="213" y="410" width="22" height="1" fill="#000000"/><rect x="213" y="411" width="22" height="1" fill="#000000"/><rect x="213" y="412" width="22" height="1" fill="#000000"/><rect x="213" y="413" width="22" height="1" fill="#000000"/><rect x="213" y="414" width="22" height="1" fill="#000000"/><rect x="213" y="415" width="22" height="1" fill="#000000"/><rect x="213" y="416" width="22" height="1" fill="#000000"/><rect x="213" y="417" width="22" height="1" fill="#000000"/><rect x="213" y="418" width="22" height="1" fill="#000000"/><rect x="213" y="419" width="22" height="1" fill="#000000"/><rect x="213" y="420" width="22" height="1" fill="#000000"/><rect x="213" y="421" width="22" height="1" fill="#000000"/><rect x="213" y="422" width="22" height="1" fill="#000000"/><rect x="213" y="423" width="22" height="1" fill="#000000"/><rect x="213" y="424" width="22" height="1" fill="#000000"/><rect x="213" y="425" width="22" height="1" fill="#000000"/><rect x="213" y="426" width="22" height="1" fill="#000000"/></svg>