<svg xmlns="http://www.w3.org/2000/svg" viewBox="0 0 512 512" width="512" height="512" shape-rendering="crispEdges"><rect x="213" y="363" width="22" height="1" fill="#000000"/><rect x="213" y="364" width="22" height="1" fill="#000000"/><rect x="213" y="365" width="22" height="1" fill="#000000"/><rect x="213" y="366" width="22" height="1" fill="#000000"/><rect x="213" y="367" width="22" height="1" fill="#000000"/><rect x="213" y="368" width="22" height="1" fill="#000000"/><rect x="213" y="369" width="22" height="1" fill="#000000"/><rect x="213" y="370" width="22" height="1" fill="#000000"/><rect x="213" y="371" width="22" height="1" fill="#000000"/><rect x="213" y="372" width="22" height="1" fill="#000000"/><rect x="213" y="373" width="22" height="1" fill="#000000"/><rect x="213" y="374" width="22" height="1" fill="#000000"/><rect x="213" y="375" width="22" height="1" fill="#000000"/><rect x="213" y="376" width="22" height="1" fill="#000000"/><rect x="213" y="377" width="22" height="1" fill="#000000"/><rect x="213" y="378" width="22" height="1" fill="#000000"/><rect x="213" y="379" width="22" height="1" fill="#000000"/><rect x="213" y="380" width="22" height="1" fill="#000000"/><rect x="213" y="381" width="22" height="1" fill="#000000"/><rect x="213" y="382" width="22" height="1" fill="#000000"/><rect x="213" y="383" width="22" height="1" fill="#000000"/><rect x="235" y="384" width="64" height="1" fill="#000000"/><rect x="235" y="385" width="64" height="1" fill="#000000"/><rect x="235" y="386" width="64" height="1" fill="#000000"/><rect x="235" y="387" width="64" height="1" fill="#000000"/><rect x="235" y="388" width="64" height="1" fill="#000000"/><rect x="235" y="389" width="64" height="1" fill="#000000"/><rect x="235" y="390" width="64" height="1" fill="#000000"/><rect x="235" y="391" width="64" height="1" fill="#000000"/><rect x="235" y="392" width="64" height="1" fill="#000000"/><rect x="235" y="393" width="64" height="1" fill="#000000"/><rect x="235" y="394" width="64" height="1" fill="#000000"/><rect x="235" y="395" width="64" height="1" fill="#000000"/><rect x="235" y="396" width="64" height="1" fill="#000000"/><rect x="235" y="397" width="64" height="1" fill="#000000"/><rect x="235" y="398" width="64" height="1" fill="#000000"/><rect x="235" y="399" width="64" height="1" fill="#000000"/><rect x="235" y="400" width="64" height="1" fill="#000000"/><rect x="235" y="401" width="64" height="1" fill="#000000"/><rect x="235" y="402" width="64" height="1" fill="#000000"/><rect x="235" y="403" width="64" height="1" fill="#000000"/><rect x="235" y="404" width="64" height="1" fill="#000000"/></svg>