<svg xmlns="http://www.w3.org/2000/svg" viewBox="0 0 512 512" width="512" height="512" shape-rendering="crispEdges"><rect x="405" y="213" width="22" height="1" fill="#FFFFFF" opacity="0.553"/><rect x="405" y="214" width="22" height="1" fill="#FFFFFF" opacity="0.553"/><rect x="405" y="215" width="22" height="1" fill="#FFFFFF" opacity="0.553"/><rect x="405" y="216" width="22" height="1" fill="#FFFFFF" opacity="0.553"/><rect x="405" y="217" width="22" height="1" fill="#FFFFFF" opacity="0.553"/><rect x="405" y="218" width="22" height="1" fill="#FFFFFF" opacity="0.553"/><rect x="405" y="219" width="22" height="1" fill="#FFFFFF" opacity="0.553"/><rect x="405" y="220" width="22" height="1" fill="#FFFFFF" opacity="0.553"/><rect x="405" y="221" width="22" height="1" fill="#FFFFFF" opacity="0.553"/><rect x="405" y="222" width="22" height="1" fill="#FFFFFF" opacity="0.553"/><rect x="405" y="223" width="22" height="1" fill="#FFFFFF" opacity="0.553"/><rect x="405" y="224" width="22" height="1" fill="#FFFFFF" opacity="0.553"/><rect x="405" y="225" width="22" height="1" fill="#FFFFFF" opacity="0.553"/><rect x="405" y="226" width="22" height="1" fill="#FFFFFF" opacity="0.553"/><rect x="405" y="227" width="22" height="1" fill="#FFFFFF" opacity="0.553"/><rect x="405" y="228" width="22" height="1" fill="#FFFFFF" opacity="0.553"/><rect x="405" y="229" width="22" height="1" fill="#FFFFFF" opacity="0.553"/><rect x="405" y="230" width="22" height="1" fill="#FFFFFF" opacity="0.553"/><rect x="405" y="231" width="22" height="1" fill="#FFFFFF" opacity="0.553"/><rect x="405" y="232" width="22" height="1" fill="#FFFFFF" opacity="0.553"/><rect x="405" y="233" width="22" height="1" fill="#FFFFFF" opacity="0.553"/><rect x="405" y="234" width="22" height="1" fill="#FFFFFF" opacity="0.553"/><rect x="405" y="235" width="22" height="1" fill="#FFFFFF" opacity="0.553"/><rect x="405" y="236" width="22" height="1" fill="#FFFFFF" opacity="0.553"/><rect x="405" y="237" width="22" height="1" fill="#FFFFFF" opacity="0.553"/><rect x="405" y="238" width="22" height="1" fill="#FFFFFF" opacity="0.553"/><rect x="405" y="239" width="22" height="1" fill="#FFFFFF" opacity="0.553"/><rect x="405" y="240" width="22" height="1" fill="#FFFFFF" opacity="0.553"/><rect x="405" y="241" width="22" height="1" fill="#FFFFFF" opacity="0.553"/><rect x="405" y="242" width="22" height="1" fill="#FFFFFF" opacity="0.553"/><rect x="405" y="243" width="22" height="1" fill="#FFFFFF" opacity="0.553"/><rect x="405" y="244" width="22" height="1" fill="#FFFFFF" opacity="0.553"/><rect x="405" y="245" width="22" height="1" fill="#FFFFFF" opacity="0.553"/><rect x="405" y="246" width="22" height="1" fill="#FFFFFF" opacity="0.553"/><rect x="405" y="247" width="22" height="1" fill="#FFFFFF" opacity="0.553"/><rect x="405" y="248" width="22" height="1" fill="#FFFFFF" opacity="0.553"/><rect x="405" y="249" width="22" height="1" fill="#FFFFFF" opacity="0.553"/><rect x="405" y="250" width="22" height="1" fill="#FFFFFF" opacity="0.553"/><rect x="405" y="251" width="22" height="1" fill="#FFFFFF" opacity="0.553"/><rect x="405" y="252" width="22" height="1" fill="#FFFFFF" opacity="0.553"/><rect x="405" y="253" width="22" height="1" fill="#FFFFFF" opacity="0.553"/><rect x="405" y="254" width="22" height="1" fill="#FFFFFF" opacity="0.553"/><rect x="405" y="255" width="22" height="1" fill="#FFFFFF" opacity="0.553"/><rect x="405" y="256" width="22" height="1" fill="#FFFFFF" opacity="0.553"/><rect x="405" y="257" width="22" height="1" fill="#FFFFFF" opacity="0.553"/><rect x="405" y="258" width="22" height="1" fill="#FFFFFF" opacity="0.553"/><rect x="405" y="259" width="22" height="1" fill="#FFFFFF" opacity="0.553"/><rect x="405" y="260" width="22" height="1" fill="#FFFFFF" opacity="0.553"/><rect x="405" y="261" width="22" height="1" fill="#FFFFFF" opacity="0.553"/><rect x="405" y="262" width="22" height="1" fill="#FFFFFF" opacity="0.553"/><rect x="405" y="263" width="22" height="1" fill="#FFFFFF" opacity="0.553"/><rect x="405" y="264" width="22" height="1" fill="#FFFFFF" opacity="0.553"/><rect x="405" y="265" width="22" height="1" fill="#FFFFFF" opacity="0.553"/><rect x="405" y="266" width="22" height="1" fill="#FFFFFF" opacity="0.553"/><rect x="405" y="267" width="22" height="1" fill="#FFFFFF" opacity="0.553"/><rect x="405" y="268" width="22" height="1" fill="#FFFFFF" opacity="0.553"/><rect x="405" y="269" width="22" height="1" fill="#FFFFFF" opacity="0.553"/><rect x="405" y="270" width="22" height="1" fill="#FFFFFF" opacity="0.553"/><rect x="405" y="271" width="22" height="1" fill="#FFFFFF" opacity="0.553"/><rect x="405" y="272" width="22" height="1" fill="#FFFFFF" opacity="0.553"/><rect x="405" y="273" width="22" height="1" fill="#FFFFFF" opacity="0.553"/><rect x="405" y="274" width="22" height="1" fill="#FFFFFF" opacity="0.553"/><rect x="405" y="275" width="22" height="1" fill="#FFFFFF" opacity="0.553"/><rect x="405" y="276" width="22" height="1" fill="#FFFFFF" opacity="0.553"/><rect x="405" y="277" width="22" height="1" fill="#FFFFFF" opacity="0.553"/><rect x="405" y="278" width="22" height="1" fill="#FFFFFF" opacity="0.553"/><rect x="405" y="279" width="22" height="1" fill="#FFFFFF" opacity="0.553"/><rect x="405" y="280" width="22" height="1" fill="#FFFFFF" opacity="0.553"/><rect x="405" y="281" width="22" height="1" fill="#FFFFFF" opacity="0.553"/><rect x="405" y="282" width="22" height="1" fill="#FFFFFF" opacity="0.553"/><rect x="405" y="283" width="22" height="1" fill="#FFFFFF" opacity="0.553"/><rect x="405" y="284" width="22" height="1" fill="#FFFFFF" opacity="0.553"/><rect x="405" y="285" width="22" height="1" fill="#FFFFFF" opacity="0.553"/><rect x="405" y="286" width="22" height="1" fill="#FFFFFF" opacity="0.553"/><rect x="405" y="287" width="22" height="1" fill="#FFFFFF" opacity="0.553"/><rect x="405" y="288" width="22" height="1" fill="#FFFFFF" opacity="0.553"/><rect x="405" y="289" width="22" height="1" fill="#FFFFFF" opacity="0.553"/><rect x="405" y="290" width="22" height="1" fill="#FFFFFF" opacity="0.553"/><rect x="405" y="291" width="22" height="1" fill="#FFFFFF" opacity="0.553"/><rect x="405" y="292" width="22" height="1" fill="#FFFFFF" opacity="0.553"/><rect x="405" y="293" width="22" height="1" fill="#FFFFFF" opacity="0.553"/><rect x="405" y="294" width="22" height="1" fill="#FFFFFF" opacity="0.553"/><rect x="405" y="295" width="22" height="1" fill="#FFFFFF" opacity="0.553"/><rect x="405" y="296" width="22" height="1" fill="#FFFFFF" opacity="0.553"/><rect x="405" y="297" width="22" height="1" fill="#FFFFFF" opacity="0.553"/><rect x="405" y="298" width="22" height="1" fill="#FFFFFF" opacity="0.553"/><rect x="405" y="299" width="22" height="1" fill="#FFFFFF" opacity="0.553"/><rect x="405" y="300" width="22" height="1" fill="#FFFFFF" opacity="0.553"/><rect x="405" y="301" width="22" height="1" fill="#FFFFFF" opacity="0.553"/><rect x="405" y="302" width="22" height="1" fill="#FFFFFF" opacity="0.553"/><rect x="405" y="303" width="22" height="1" fill="#FFFFFF" opacity="0.553"/><rect x="405" y="304" width="22" height="1" fill="#FFFFFF" opacity="0.553"/><rect x="405" y="305" width="22" height="1" fill="#FFFFFF" opacity="0.553"/><rect x="405" y="306" width="22" height="1" fill="#FFFFFF" opacity="0.553"/><rect x="405" y="307" width="22" height="1" fill="#FFFFFF" opacity="0.553"/><rect x="405" y="308" width="22" height="1" fill="#FFFFFF" opacity="0.553"/><rect x="405" y="309" width="22" height="1" fill="#FFFFFF" opacity="0.553"/><rect x="405" y="310" width="22" height="1" fill="#FFFFFF" opacity="0.553"/><rect x="405" y="311" width="22" height="1" fill="#FFFFFF" opacity="0.553"/><rect x="405" y="312" width="22" height="1" fill="#FFFFFF" opacity="0.553"/><rect x="405" y="313" width="22" height="1" fill="#FFFFFF" opacity="0.553"/><rect x="405" y="314" width="22" height="1" fill="#FFFFFF" opacity="0.553"/><rect x="405" y="315" width="22" height="1" fill="#FFFFFF" opacity="0.553"/><rect x="405" y="316" width="22" height="1" fill="#FFFFFF" opacity="0.553"/><rect x="405" y="317" width="22" height="1" fill="#FFFFFF" opacity="0.553"/><rect x="405" y="318" width="22" height="1" fill="#FFFFFF" opacity="0.553"/><rect x="405" y="319" width="22" height="1" fill="#FFFFFF" opacity="0.553"/><rect x="405" y="320" width="22" height="1" fill="#FFFFFF" opacity="0.553"/><rect x="405" y="321" width="22" height="1" fill="#FFFFFF" opacity="0.553"/><rect x="405" y="322" width="22" height="1" fill="#FFFFFF" opacity="0.553"/><rect x="405" y="323" width="22" height="1" fill="#FFFFFF" opacity="0.553"/><rect x="405" y="324" width="22" height="1" fill="#FFFFFF" opacity="0.553"/><rect x="405" y="325" width="22" height="1" fill="#FFFFFF" opacity="0.553"/><rect x="405" y="326" width="22" height="1" fill="#FFFFFF" opacity="0.553"/><rect x="405" y="327" width="22" height="1" fill="#FFFFFF" opacity="0.553"/><rect x="405" y="328" width="22" height="1" fill="#FFFFFF" opacity="0.553"/><rect x="405" y="329" width="22" height="1" fill="#FFFFFF" opacity="0.553"/><rect x="405" y="330" width="22" height="1" fill="#FFFFFF" opacity="0.553"/><rect x="405" y="331" width="22" height="1" fill="#FFFFFF" opacity="0.553"/><rect x="405" y="332" width="22" height="1" fill="#FFFFFF" opacity="0.553"/><rect x="405" y="333" width="22" height="1" fill="#FFFFFF" opacity="0.553"/><rect x="405" y="334" width="22" height="1" fill="#FFFFFF" opacity="0.553"/><rect x="405" y="335" width="22" height="1" fill="#FFFFFF" opacity="0.553"/><rect x="405" y="336" width="22" height="1" fill="#FFFFFF" opacity="0.553"/><rect x="405" y="337" width="22" height="1" fill="#FFFFFF" opacity="0.553"/><rect x="405" y="338" width="22" height="1" fill="#FFFFFF" opacity="0.553"/><rect x="405" y="339" width="22" height="1" fill="#FFFFFF" opacity="0.553"/><rect x="405" y="340" width="22" height="1" fill="#FFFFFF" opacity="0.553"/><rect x="299" y="363" width="128" height="1" fill="#000000"/><rect x="299" y="364" width="128" height="1" fill="#000000"/><rect x="299" y="365" width="128" height="1" fill="#000000"/><rect x="299" y="366" width="128" height="1" fill="#000000"/><rect x="299" y="367" width="128" height="1" fill="#000000"/><rect x="299" y="368" width="128" height="1" fill="#000000"/><rect x="299" y="369" width="128" height="1" fill="#000000"/><rect x="299" y="370" width="128" height="1" fill="#000000"/><rect x="299" y="371" width="128" height="1" fill="#000000"/><rect x="299" y="372" width="128" height="1" fill="#000000"/><rect x="299" y="373" width="128" height="1" fill="#000000"/><rect x="299" y="374" width="128" height="1" fill="#000000"/><rect x="299" y="375" width="128" height="1" fill="#000000"/><rect x="299" y="376" width="128" height="1" fill="#000000"/><rect x="299" y="377" width="128" height="1" fill="#000000"/><rect x="299" y="378" width="128" height="1" fill="#000000"/><rect x="299" y="379" width="128" height="1" fill="#000000"/><rect x="299" y="380" width="128" height="1" fill="#000000"/><rect x="299" y="381" width="128" height="1" fill="#000000"/><rect x="299" y="382" width="128" height="1" fill="#000000"/><rect x="299" y="383" width="128" height="1" fill="#000000"/><rect x="277" y="384" width="22" height="1" fill="#000000"/><rect x="299" y="384" width="106" height="1" fill="#C3C6CD"/><rect x="405" y="384" width="22" height="1" fill="#E15B26"/><rect x="427" y="384" width="21" height="1" fill="#000000"/><rect x="277" y="385" width="22" height="1" fill="#000000"/><rect x="299" y="385" width="106" height="1" fill="#C3C6CD"/><rect x="405" y="385" width="22" height="1" fill="#E15B26"/><rect x="427" y="385" width="21" height="1" fill="#000000"/><rect x="277" y="386" width="22" height="1" fill="#000000"/><rect x="299" y="386" width="106" height="1" fill="#C3C6CD"/><rect x="405" y="386" width="22" height="1" fill="#E15B26"/><rect x="427" y="386" width="21" height="1" fill="#000000"/><rect x="277" y="387" width="22" height="1" fill="#000000"/><rect x="299" y="387" width="106" height="1" fill="#C3C6CD"/><rect x="405" y="387" width="22" height="1" fill="#E15B26"/><rect x="427" y="387" width="21" height="1" fill="#000000"/><rect x="277" y="388" width="22" height="1" fill="#000000"/><rect x="299" y="388" width="106" height="1" fill="#C3C6CD"/><rect x="405" y="388" width="22" height="1" fill="#E15B26"/><rect x="427" y="388" width="21" height="1" fill="#000000"/><rect x="277" y="389" width="22" height="1" fill="#000000"/><rect x="299" y="389" width="106" height="1" fill="#C3C6CD"/><rect x="405" y="389" width="22" height="1" fill="#E15B26"/><rect x="427" y="389" width="21" height="1" fill="#000000"/><rect x="277" y="390" width="22" height="1" fill="#000000"/><rect x="299" y="390" width="106" height="1" fill="#C3C6CD"/><rect x="405" y="390" width="22" height="1" fill="#E15B26"/><rect x="427" y="390" width="21" height="1" fill="#000000"/><rect x="277" y="391" width="22" height="1" fill="#000000"/><rect x="299" y="391" width="106" height="1" fill="#C3C6CD"/><rect x="405" y="391" width="22" height="1" fill="#E15B26"/><rect x="427" y="391" width="21" height="1" fill="#000000"/><rect x="277" y="392" width="22" height="1" fill="#000000"/><rect x="299" y="392" width="106" height="1" fill="#C3C6CD"/><rect x="405" y="392" width="22" height="1" fill="#E15B26"/><rect x="427" y="392" width="21" height="1" fill="#000000"/><rect x="277" y="393" width="22" height="1" fill="#000000"/><rect x="299" y="393" width="106" height="1" fill="#C3C6CD"/><rect x="405" y="393" width="22" height="1" fill="#E15B26"/><rect x="427" y="393" width="21" height="1" fill="#000000"/><rect x="277" y="394" width="22" height="1" fill="#000000"/><rect x="299" y="394" width="106" height="1" fill="#C3C6CD"/><rect x="405" y="394" width="22" height="1" fill="#E15B26"/><rect x="427" y="394" width="21" height="1" fill="#000000"/><rect x="277" y="395" width="22" height="1" fill="#000000"/><rect x="299" y="395" width="106" height="1" fill="#C3C6CD"/><rect x="405" y="395" width="22" height="1" fill="#E15B26"/><rect x="427" y="395" width="21" height="1" fill="#000000"/><rect x="277" y="396" width="22" height="1" fill="#000000"/><rect x="299" y="396" width="106" height="1" fill="#C3C6CD"/><rect x="405" y="396" width="22" height="1" fill="#E15B26"/><rect x="427" y="396" width="21" height="1" fill="#000000"/><rect x="277" y="397" width="22" height="1" fill="#000000"/><rect x="299" y="397" width="106" height="1" fill="#C3C6CD"/><rect x="405" y="397" width="22" height="1" fill="#E15B26"/><rect x="427" y="397" width="21" height="1" fill="#000000"/><rect x="277" y="398" width="22" height="1" fill="#000000"/><rect x="299" y="398" width="106" height="1" fill="#C3C6CD"/><rect x="405" y="398" width="22" height="1" fill="#E15B26"/><rect x="427" y="398" width="21" height="1" fill="#000000"/><rect x="277" y="399" width="22" height="1" fill="#000000"/><rect x="299" y="399" width="106" height="1" fill="#C3C6CD"/><rect x="405" y="399" width="22" height="1" fill="#E15B26"/><rect x="427" y="399" width="21" height="1" fill="#000000"/><rect x="277" y="400" width="22" height="1" fill="#000000"/><rect x="299" y="400" width="106" height="1" fill="#C3C6CD"/><rect x="405" y="400" width="22" height="1" fill="#E15B26"/><rect x="427" y="400" width="21" height="1" fill="#000000"/><rect x="277" y="401" width="22" height="1" fill="#000000"/><rect x="299" y="401" width="106" height="1" fill="#C3C6CD"/><rect x="405" y="401" width="22" height="1" fill="#E15B26"/><rect x="427" y="401" width="21" height="1" fill="#000000"/><rect x="277" y="402" width="22" height="1" fill="#000000"/><rect x="299" y="402" width="106" height="1" fill="#C3C6CD"/><rect x="405" y="402" width="22" height="1" fill="#E15B26"/><rect x="427" y="402" width="21" height="1" fill="#000000"/><rect x="277" y="403" width="22" height="1" fill="#000000"/><rect x="299" y="403" width="106" height="1" fill="#C3C6CD"/><rect x="405" y="403" width="22" height="1" fill="#E15B26"/><rect x="427" y="403" width="21" height="1" fill="#000000"/><rect x="277" y="404" width="22" height="1" fill="#000000"/><rect x="299" y="404" width="106" height="1" fill="#C3C6CD"/><rect x="405" y="404" width="22" height="1" fill="#E15B26"/><rect x="427" y="404" width="21" height="1" fill="#000000"/><rect x="299" y="405" width="128" height="1" fill="#000000"/><rect x="299" y="406" width="128" height="1" fill="#000000"/><rect x="299" y="407" width="128" height="1" fill="#000000"/><rect x="299" y="408" width="128" height="1" fill="#000000"/><rect x="299" y="409" width="128" height="1" fill="#000000"/><rect x="299" y="410" width="128" height="1" fill="#000000"/><rect x="299" y="411" width="128" height="1" fill="#000000"/><rect x="299" y="412" width="128" height="1" fill="#000000"/><rect x="299" y="413" width="128" height="1" fill="#000000"/><rect x="299" y="414" width="128" height="1" fill="#000000"/><rect x="299" y="415" width="128" height="1" fill="#000000"/><rect x="299" y="416" width="128" height="1" fill="#000000"/><rect x="299" y="417" width="128" height="1" fill="#000000"/><rect x="299" y="418" width="128" height="1" fill="#000000"/><rect x="299" y="419" width="128" height="1" fill="#000000"/><rect x="299" y="420" width="128" height="1" fill="#000000"/><rect x="299" y="421" width="128" height="1" fill="#000000"/><rect x="299" y="422" width="128" height="1" fill="#000000"/><rect x="299" y="423" width="128" height="1" fill="#000000"/><rect x="299" y="424" width="128" height="1" fill="#000000"/><rect x="299" y="425" width="128" height="1" fill="#000000"/><rect x="299" y="426" width="128" height="1" fill="#000000"/></svg>