<svg xmlns="http://www.w3.org/2000/svg" viewBox="0 0 512 512" width="512" height="512" shape-rendering="crispEdges"><rect x="128" y="149" width="21" height="1" fill="#000000"/><rect x="149" y="149" width="192" height="1" fill="#FFFFFD"/><rect x="341" y="149" width="22" height="1" fill="#000000"/><rect x="128" y="150" width="21" height="1" fill="#000000"/><rect x="149" y="150" width="192" height="1" fill="#FFFFFD"/><rect x="341" y="150" width="22" height="1" fill="#000000"/><rect x="128" y="151" width="21" height="1" fill="#000000"/><rect x="149" y="151" width="192" height="1" fill="#FFFFFD"/><rect x="341" y="151" width="22" height="1" fill="#000000"/><rect x="128" y="152" width="21" height="1" fill="#000000"/><rect x="149" y="152" width="192" height="1" fill="#FFFFFD"/><rect x="341" y="152" width="22" height="1" fill="#000000"/><rect x="128" y="153" width="21" height="1" fill="#000000"/><rect x="149" y="153" width="192" height="1" fill="#FFFFFD"/><rect x="341" y="153" width="22" height="1" fill="#000000"/><rect x="128" y="154" width="21" height="1" fill="#000000"/><rect x="149" y="154" width="192" height="1" fill="#FFFFFD"/><rect x="341" y="154" width="22" height="1" fill="#000000"/><rect x="128" y="155" width="21" height="1" fill="#000000"/><rect x="149" y="155" width="192" height="1" fill="#FFFFFD"/><rect x="341" y="155" width="22" height="1" fill="#000000"/><rect x="128" y="156" width="21" height="1" fill="#000000"/><rect x="149" y="156" width="192" height="1" fill="#FFFFFD"/><rect x="341" y="156" width="22" height="1" fill="#000000"/><rect x="128" y="157" width="21" height="1" fill="#000000"/><rect x="149" y="157" width="192" height="1" fill="#FFFFFD"/><rect x="341" y="157" width="22" height="1" fill="#000000"/><rect x="128" y="158" width="21" height="1" fill="#000000"/><rect x="149" y="158" width="192" height="1" fill="#FFFFFD"/><rect x="341" y="158" width="22" height="1" fill="#000000"/><rect x="128" y="159" width="21" height="1" fill="#000000"/><rect x="149" y="159" width="192" height="1" fill="#FFFFFD"/><rect x="341" y="159" width="22" height="1" fill="#000000"/><rect x="128" y="160" width="21" height="1" fill="#000000"/><rect x="149" y="160" width="192" height="1" fill="#FFFFFD"/><rect x="341" y="160" width="22" height="1" fill="#000000"/><rect x="128" y="161" width="21" height="1" fill="#000000"/><rect x="149" y="161" width="192" height="1" fill="#FFFFFD"/><rect x="341" y="161" width="22" height="1" fill="#000000"/><rect x="128" y="162" width="21" height="1" fill="#000000"/><rect x="149" y="162" width="192" height="1" fill="#FFFFFD"/><rect x="341" y="162" width="22" height="1" fill="#000000"/><rect x="128" y="163" width="21" height="1" fill="#000000"/><rect x="149" y="163" width="192" height="1" fill="#FFFFFD"/><rect x="341" y="163" width="22" height="1" fill="#000000"/><rect x="128" y="164" width="21" height="1" fill="#000000"/><rect x="149" y="164" width="192" height="1" fill="#FFFFFD"/><rect x="341" y="164" width="22" height="1" fill="#000000"/><rect x="128" y="165" width="21" height="1" fill="#000000"/><rect x="149" y="165" width="192" height="1" fill="#FFFFFD"/><rect x="341" y="165" width="22" height="1" fill="#000000"/><rect x="128" y="166" width="21" height="1" fill="#000000"/><rect x="149" y="166" width="192" height="1" fill="#FFFFFD"/><rect x="341" y="166" width="22" height="1" fill="#000000"/><rect x="128" y="167" width="21" height="1" fill="#000000"/><rect x="149" y="167" width="192" height="1" fill="#FFFFFD"/><rect x="341" y="167" width="22" height="1" fill="#000000"/><rect x="128" y="168" width="21" height="1" fill="#000000"/><rect x="149" y="168" width="192" height="1" fill="#FFFFFD"/><rect x="341" y="168" width="22" height="1" fill="#000000"/><rect x="128" y="169" width="21" height="1" fill="#000000"/><rect x="149" y="169" width="192" height="1" fill="#FFFFFD"/><rect x="341" y="169" width="22" height="1" fill="#000000"/><rect x="128" y="170" width="21" height="1" fill="#000000"/><rect x="149" y="170" width="192" height="1" fill="#FFFFFD"/><rect x="341" y="170" width="22" height="1" fill="#000000"/><rect x="128" y="171" width="21" height="1" fill="#000000"/><rect x="149" y="171" width="192" height="1" fill="#1B6ED5"/><rect x="341" y="171" width="22" height="1" fill="#000000"/><rect x="128" y="172" width="21" height="1" fill="#000000"/><rect x="149" y="172" width="192" height="1" fill="#1B6ED5"/><rect x="341" y="172" width="22" height="1" fill="#000000"/><rect x="128" y="173" width="21" height="1" fill="#000000"/><rect x="149" y="173" width="192" height="1" fill="#1B6ED5"/><rect x="341" y="173" width="22" height="1" fill="#000000"/><rect x="128" y="174" width="21" height="1" fill="#000000"/><rect x="149" y="174" width="192" height="1" fill="#1B6ED5"/><rect x="341" y="174" width="22" height="1" fill="#000000"/><rect x="128" y="175" width="21" height="1" fill="#000000"/><rect x="149" y="175" width="192" height="1" fill="#1B6ED5"/><rect x="341" y="175" width="22" height="1" fill="#000000"/><rect x="128" y="176" width="21" height="1" fill="#000000"/><rect x="149" y="176" width="192" height="1" fill="#1B6ED5"/><rect x="341" y="176" width="22" height="1" fill="#000000"/><rect x="128" y="177" width="21" height="1" fill="#000000"/><rect x="149" y="177" width="192" height="1" fill="#1B6ED5"/><rect x="341" y="177" width="22" height="1" fill="#000000"/><rect x="128" y="178" width="21" height="1" fill="#000000"/><rect x="149" y="178" width="192" height="1" fill="#1B6ED5"/><rect x="341" y="178" width="22" height="1" fill="#000000"/><rect x="128" y="179" width="21" height="1" fill="#000000"/><rect x="149" y="179" width="192" height="1" fill="#1B6ED5"/><rect x="341" y="179" width="22" height="1" fill="#000000"/><rect x="128" y="180" width="21" height="1" fill="#000000"/><rect x="149" y="180" width="192" height="1" fill="#1B6ED5"/><rect x="341" y="180" width="22" height="1" fill="#000000"/><rect x="128" y="181" width="21" height="1" fill="#000000"/><rect x="149" y="181" width="192" height="1" fill="#1B6ED5"/><rect x="341" y="181" width="22" height="1" fill="#000000"/><rect x="128" y="182" width="21" height="1" fill="#000000"/><rect x="149" y="182" width="192" height="1" fill="#1B6ED5"/><rect x="341" y="182" width="22" height="1" fill="#000000"/><rect x="128" y="183" width="21" height="1" fill="#000000"/><rect x="149" y="183" width="192" height="1" fill="#1B6ED5"/><rect x="341" y="183" width="22" height="1" fill="#000000"/><rect x="128" y="184" width="21" height="1" fill="#000000"/><rect x="149" y="184" width="192" height="1" fill="#1B6ED5"/><rect x="341" y="184" width="22" height="1" fill="#000000"/><rect x="128" y="185" width="21" height="1" fill="#000000"/><rect x="149" y="185" width="192" height="1" fill="#1B6ED5"/><rect x="341" y="185" width="22" height="1" fill="#000000"/><rect x="128" y="186" width="21" height="1" fill="#000000"/><rect x="149" y="186" width="192" height="1" fill="#1B6ED5"/><rect x="341" y="186" width="22" height="1" fill="#000000"/><rect x="128" y="187" width="21" height="1" fill="#000000"/><rect x="149" y="187" width="192" height="1" fill="#1B6ED5"/><rect x="341" y="187" width="22" height="1" fill="#000000"/><rect x="128" y="188" width="21" height="1" fill="#000000"/><rect x="149" y="188" width="192" height="1" fill="#1B6ED5"/><rect x="341" y="188" width="22" height="1" fill="#000000"/><rect x="128" y="189" width="21" height="1" fill="#000000"/><rect x="149" y="189" width="192" height="1" fill="#1B6ED5"/><rect x="341" y="189" width="22" height="1" fill="#000000"/><rect x="128" y="190" width="21" height="1" fill="#000000"/><rect x="149" y="190" width="192" height="1" fill="#1B6ED5"/><rect x="341" y="190" width="22" height="1" fill="#000000"/><rect x="128" y="191" width="21" height="1" fill="#000000"/><rect x="149" y="191" width="192" height="1" fill="#1B6ED5"/><rect x="341" y="191" width="22" height="1" fill="#000000"/></svg>