<svg xmlns="http://www.w3.org/2000/svg" viewBox="0 0 512 512" width="512" height="512" shape-rendering="crispEdges"><rect x="128" y="256" width="21" height="1" fill="#C9C9C9"/><rect x="128" y="257" width="21" height="1" fill="#C9C9C9"/><rect x="128" y="258" width="21" height="1" fill="#C9C9C9"/><rect x="128" y="259" width="21" height="1" fill="#C9C9C9"/><rect x="128" y="260" width="21" height="1" fill="#C9C9C9"/><rect x="128" y="261" width="21" height="1" fill="#C9C9C9"/><rect x="128" y="262" width="21" height="1" fill="#C9C9C9"/><rect x="128" y="263" width="21" height="1" fill="#C9C9C9"/><rect x="128" y="264" width="21" height="1" fill="#C9C9C9"/><rect x="128" y="265" width="21" height="1" fill="#C9C9C9"/><rect x="128" y="266" width="21" height="1" fill="#C9C9C9"/><rect x="128" y="267" width="21" height="1" fill="#C9C9C9"/><rect x="128" y="268" width="21" height="1" fill="#C9C9C9"/><rect x="128" y="269" width="21" height="1" fill="#C9C9C9"/><rect x="128" y="270" width="21" height="1" fill="#C9C9C9"/><rect x="128" y="271" width="21" height="1" fill="#C9C9C9"/><rect x="128" y="272" width="21" height="1" fill="#C9C9C9"/><rect x="128" y="273" width="21" height="1" fill="#C9C9C9"/><rect x="128" y="274" width="21" height="1" fill="#C9C9C9"/><rect x="128" y="275" width="21" height="1" fill="#C9C9C9"/><rect x="128" y="276" width="21" height="1" fill="#C9C9C9"/><rect x="149" y="277" width="22" height="1" fill="#C9C9C9"/><rect x="149" y="278" width="22" height="1" fill="#C9C9C9"/><rect x="149" y="279" width="22" height="1" fill="#C9C9C9"/><rect x="149" y="280" width="22" height="1" fill="#C9C9C9"/><rect x="149" y="281" width="22" height="1" fill="#C9C9C9"/><rect x="149" y="282" width="22" height="1" fill="#C9C9C9"/><rect x="149" y="283" width="22" height="1" fill="#C9C9C9"/><rect x="149" y="284" width="22" height="1" fill="#C9C9C9"/><rect x="149" y="285" width="22" height="1" fill="#C9C9C9"/><rect x="149" y="286" width="22" height="1" fill="#C9C9C9"/><rect x="149" y="287" width="22" height="1" fill="#C9C9C9"/><rect x="149" y="288" width="22" height="1" fill="#C9C9C9"/><rect x="149" y="289" width="22" height="1" fill="#C9C9C9"/><rect x="149" y="290" width="22" height="1" fill="#C9C9C9"/><rect x="149" y="291" width="22" height="1" fill="#C9C9C9"/><rect x="149" y="292" width="22" height="1" fill="#C9C9C9"/><rect x="149" y="293" width="22" height="1" fill="#C9C9C9"/><rect x="149" y="294" width="22" height="1" fill="#C9C9C9"/><rect x="149" y="295" width="22" height="1" fill="#C9C9C9"/><rect x="149" y="296" width="22" height="1" fill="#C9C9C9"/><rect x="149" y="297" width="22" height="1" fill="#C9C9C9"/><rect x="149" y="298" width="22" height="1" fill="#C9C9C9"/><rect x="171" y="299" width="21" height="1" fill="#C9C9C9"/><rect x="320" y="299" width="21" height="1" fill="#C9C9C9"/><rect x="171" y="300" width="21" height="1" fill="#C9C9C9"/><rect x="320" y="300" width="21" height="1" fill="#C9C9C9"/><rect x="171" y="301" width="21" height="1" fill="#C9C9C9"/><rect x="320" y="301" width="21" height="1" fill="#C9C9C9"/><rect x="171" y="302" width="21" height="1" fill="#C9C9C9"/><rect x="320" y="302" width="21" height="1" fill="#C9C9C9"/><rect x="171" y="303" width="21" height="1" fill="#C9C9C9"/><rect x="320" y="303" width="21" height="1" fill="#C9C9C9"/><rect x="171" y="304" width="21" height="1" fill="#C9C9C9"/><rect x="320" y="304" width="21" height="1" fill="#C9C9C9"/><rect x="171" y="305" width="21" height="1" fill="#C9C9C9"/><rect x="320" y="305" width="21" height="1" fill="#C9C9C9"/><rect x="171" y="306" width="21" height="1" fill="#C9C9C9"/><rect x="320" y="306" width="21" height="1" fill="#C9C9C9"/><rect x="171" y="307" width="21" height="1" fill="#C9C9C9"/><rect x="320" y="307" width="21" height="1" fill="#C9C9C9"/><rect x="171" y="308" width="21" height="1" fill="#C9C9C9"/><rect x="320" y="308" width="21" height="1" fill="#C9C9C9"/><rect x="171" y="309" width="21" height="1" fill="#C9C9C9"/><rect x="320" y="309" width="21" height="1" fill="#C9C9C9"/><rect x="171" y="310" width="21" height="1" fill="#C9C9C9"/><rect x="320" y="310" width="21" height="1" fill="#C9C9C9"/><rect x="171" y="311" width="21" height="1" fill="#C9C9C9"/><rect x="320" y="311" width="21" height="1" fill="#C9C9C9"/><rect x="171" y="312" width="21" height="1" fill="#C9C9C9"/><rect x="320" y="312" width="21" height="1" fill="#C9C9C9"/><rect x="171" y="313" width="21" height="1" fill="#C9C9C9"/><rect x="320" y="313" width="21" height="1" fill="#C9C9C9"/><rect x="171" y="314" width="21" height="1" fill="#C9C9C9"/><rect x="320" y="314" width="21" height="1" fill="#C9C9C9"/><rect x="171" y="315" width="21" height="1" fill="#C9C9C9"/><rect x="320" y="315" width="21" height="1" fill="#C9C9C9"/><rect x="171" y="316" width="21" height="1" fill="#C9C9C9"/><rect x="320" y="316" width="21" height="1" fill="#C9C9C9"/><rect x="171" y="317" width="21" height="1" fill="#C9C9C9"/><rect x="320" y="317" width="21" height="1" fill="#C9C9C9"/><rect x="171" y="318" width="21" height="1" fill="#C9C9C9"/><rect x="320" y="318" width="21" height="1" fill="#C9C9C9"/><rect x="171" y="319" width="21" height="1" fill="#C9C9C9"/><rect x="320" y="319" width="21" height="1" fill="#C9C9C9"/><rect x="192" y="320" width="64" height="1" fill="#C9C9C9"/><rect x="256" y="320" width="21" height="1" fill="#B1B1B1"/><rect x="277" y="320" width="43" height="1" fill="#C9C9C9"/><rect x="192" y="321" width="64" height="1" fill="#C9C9C9"/><rect x="256" y="321" width="21" height="1" fill="#B1B1B1"/><rect x="277" y="321" width="43" height="1" fill="#C9C9C9"/><rect x="192" y="322" width="64" height="1" fill="#C9C9C9"/><rect x="256" y="322" width="21" height="1" fill="#B1B1B1"/><rect x="277" y="322" width="43" height="1" fill="#C9C9C9"/><rect x="192" y="323" width="64" height="1" fill="#C9C9C9"/><rect x="256" y="323" width="21" height="1" fill="#B1B1B1"/><rect x="277" y="323" width="43" height="1" fill="#C9C9C9"/><rect x="192" y="324" width="64" height="1" fill="#C9C9C9"/><rect x="256" y="324" width="21" height="1" fill="#B1B1B1"/><rect x="277" y="324" width="43" height="1" fill="#C9C9C9"/><rect x="192" y="325" width="64" height="1" fill="#C9C9C9"/><rect x="256" y="325" width="21" height="1" fill="#B1B1B1"/><rect x="277" y="325" width="43" height="1" fill="#C9C9C9"/><rect x="192" y="326" width="64" height="1" fill="#C9C9C9"/><rect x="256" y="326" width="21" height="1" fill="#B1B1B1"/><rect x="277" y="326" width="43" height="1" fill="#C9C9C9"/><rect x="192" y="327" width="64" height="1" fill="#C9C9C9"/><rect x="256" y="327" width="21" height="1" fill="#B1B1B1"/><rect x="277" y="327" width="43" height="1" fill="#C9C9C9"/><rect x="192" y="328" width="64" height="1" fill="#C9C9C9"/><rect x="256" y="328" width="21" height="1" fill="#B1B1B1"/><rect x="277" y="328" width="43" height="1" fill="#C9C9C9"/><rect x="192" y="329" width="64" height="1" fill="#C9C9C9"/><rect x="256" y="329" width="21" height="1" fill="#B1B1B1"/><rect x="277" y="329" width="43" height="1" fill="#C9C9C9"/><rect x="192" y="330" width="64" height="1" fill="#C9C9C9"/><rect x="256" y="330" width="21" height="1" fill="#B1B1B1"/><rect x="277" y="330" width="43" height="1" fill="#C9C9C9"/><rect x="192" y="331" width="64" height="1" fill="#C9C9C9"/><rect x="256" y="331" width="21" height="1" fill="#B1B1B1"/><rect x="277" y="331" width="43" height="1" fill="#C9C9C9"/><rect x="192" y="332" width="64" height="1" fill="#C9C9C9"/><rect x="256" y="332" width="21" height="1" fill="#B1B1B1"/><rect x="277" y="332" width="43" height="1" fill="#C9C9C9"/><rect x="192" y="333" width="64" height="1" fill="#C9C9C9"/><rect x="256" y="333" width="21" height="1" fill="#B1B1B1"/><rect x="277" y="333" width="43" height="1" fill="#C9C9C9"/><rect x="192" y="334" width="64" height="1" fill="#C9C9C9"/><rect x="256" y="334" width="21" height="1" fill="#B1B1B1"/><rect x="277" y="334" width="43" height="1" fill="#C9C9C9"/><rect x="192" y="335" width="64" height="1" fill="#C9C9C9"/><rect x="256" y="335" width="21" height="1" fill="#B1B1B1"/><rect x="277" y="335" width="43" height="1" fill="#C9C9C9"/><rect x="192" y="336" width="64" height="1" fill="#C9C9C9"/><rect x="256" y="336" width="21" height="1" fill="#B1B1B1"/><rect x="277" y="336" width="43" height="1" fill="#C9C9C9"/><rect x="192" y="337" width="64" height="1" fill="#C9C9C9"/><rect x="256" y="337" width="21" height="1" fill="#B1B1B1"/><rect x="277" y="337" width="43" height="1" fill="#C9C9C9"/><rect x="192" y="338" width="64" height="1" fill="#C9C9C9"/><rect x="256" y="338" width="21" height="1" fill="#B1B1B1"/><rect x="277" y="338" width="43" height="1" fill="#C9C9C9"/><rect x="192" y="339" width="64" height="1" fill="#C9C9C9"/><rect x="256" y="339" width="21" height="1" fill="#B1B1B1"/><rect x="277" y="339" width="43" height="1" fill="#C9C9C9"/><rect x="192" y="340" width="64" height="1" fill="#C9C9C9"/><rect x="256" y="340" width="21" height="1" fill="#B1B1B1"/><rect x="277" y="340" width="43" height="1" fill="#C9C9C9"/><rect x="192" y="341" width="128" height="1" fill="#C9C9C9"/><rect x="192" y="342" width="128" height="1" fill="#C9C9C9"/><rect x="192" y="343" width="128" height="1" fill="#C9C9C9"/><rect x="192" y="344" width="128" height="1" fill="#C9C9C9"/><rect x="192" y="345" width="128" height="1" fill="#C9C9C9"/><rect x="192" y="346" width="128" height="1" fill="#C9C9C9"/><rect x="192" y="347" width="128" height="1" fill="#C9C9C9"/><rect x="192" y="348" width="128" height="1" fill="#C9C9C9"/><rect x="192" y="349" width="128" height="1" fill="#C9C9C9"/><rect x="192" y="350" width="128" height="1" fill="#C9C9C9"/><rect x="192" y="351" width="128" height="1" fill="#C9C9C9"/><rect x="192" y="352" width="128" height="1" fill="#C9C9C9"/><rect x="192" y="353" width="128" height="1" fill="#C9C9C9"/><rect x="192" y="354" width="128" height="1" fill="#C9C9C9"/><rect x="192" y="355" width="128" height="1" fill="#C9C9C9"/><rect x="192" y="356" width="128" height="1" fill="#C9C9C9"/><rect x="192" y="357" width="128" height="1" fill="#C9C9C9"/><rect x="192" y="358" width="128" height="1" fill="#C9C9C9"/><rect x="192" y="359" width="128" height="1" fill="#C9C9C9"/><rect x="192" y="360" width="128" height="1" fill="#C9C9C9"/><rect x="192" y="361" width="128" height="1" fill="#C9C9C9"/><rect x="192" y="362" width="128" height="1" fill="#C9C9C9"/><rect x="192" y="363" width="21" height="1" fill="#B1B1B1"/><rect x="213" y="363" width="86" height="1" fill="#C9C9C9"/><rect x="299" y="363" width="21" height="1" fill="#B1B1B1"/><rect x="192" y="364" width="21" height="1" fill="#B1B1B1"/><rect x="213" y="364" width="86" height="1" fill="#C9C9C9"/><rect x="299" y="364" width="21" height="1" fill="#B1B1B1"/><rect x="192" y="365" width="21" height="1" fill="#B1B1B1"/><rect x="213" y="365" width="86" height="1" fill="#C9C9C9"/><rect x="299" y="365" width="21" height="1" fill="#B1B1B1"/><rect x="192" y="366" width="21" height="1" fill="#B1B1B1"/><rect x="213" y="366" width="86" height="1" fill="#C9C9C9"/><rect x="299" y="366" width="21" height="1" fill="#B1B1B1"/><rect x="192" y="367" width="21" height="1" fill="#B1B1B1"/><rect x="213" y="367" width="86" height="1" fill="#C9C9C9"/><rect x="299" y="367" width="21" height="1" fill="#B1B1B1"/><rect x="192" y="368" width="21" height="1" fill="#B1B1B1"/><rect x="213" y="368" width="86" height="1" fill="#C9C9C9"/><rect x="299" y="368" width="21" height="1" fill="#B1B1B1"/><rect x="192" y="369" width="21" height="1" fill="#B1B1B1"/><rect x="213" y="369" width="86" height="1" fill="#C9C9C9"/><rect x="299" y="369" width="21" height="1" fill="#B1B1B1"/><rect x="192" y="370" width="21" height="1" fill="#B1B1B1"/><rect x="213" y="370" width="86" height="1" fill="#C9C9C9"/><rect x="299" y="370" width="21" height="1" fill="#B1B1B1"/><rect x="192" y="371" width="21" height="1" fill="#B1B1B1"/><rect x="213" y="371" width="86" height="1" fill="#C9C9C9"/><rect x="299" y="371" width="21" height="1" fill="#B1B1B1"/><rect x="192" y="372" width="21" height="1" fill="#B1B1B1"/><rect x="213" y="372" width="86" height="1" fill="#C9C9C9"/><rect x="299" y="372" width="21" height="1" fill="#B1B1B1"/><rect x="192" y="373" width="21" height="1" fill="#B1B1B1"/><rect x="213" y="373" width="86" height="1" fill="#C9C9C9"/><rect x="299" y="373" width="21" height="1" fill="#B1B1B1"/><rect x="192" y="374" width="21" height="1" fill="#B1B1B1"/><rect x="213" y="374" width="86" height="1" fill="#C9C9C9"/><rect x="299" y="374" width="21" height="1" fill="#B1B1B1"/><rect x="192" y="375" width="21" height="1" fill="#B1B1B1"/><rect x="213" y="375" width="86" height="1" fill="#C9C9C9"/><rect x="299" y="375" width="21" height="1" fill="#B1B1B1"/><rect x="192" y="376" width="21" height="1" fill="#B1B1B1"/><rect x="213" y="376" width="86" height="1" fill="#C9C9C9"/><rect x="299" y="376" width="21" height="1" fill="#B1B1B1"/><rect x="192" y="377" width="21" height="1" fill="#B1B1B1"/><rect x="213" y="377" width="86" height="1" fill="#C9C9C9"/><rect x="299" y="377" width="21" height="1" fill="#B1B1B1"/><rect x="192" y="378" width="21" height="1" fill="#B1B1B1"/><rect x="213" y="378" width="86" height="1" fill="#C9C9C9"/><rect x="299" y="378" width="21" height="1" fill="#B1B1B1"/><rect x="192" y="379" width="21" height="1" fill="#B1B1B1"/><rect x="213" y="379" width="86" height="1" fill="#C9C9C9"/><rect x="299" y="379" width="21" height="1" fill="#B1B1B1"/><rect x="192" y="380" width="21" height="1" fill="#B1B1B1"/><rect x="213" y="380" width="86" height="1" fill="#C9C9C9"/><rect x="299" y="380" width="21" height="1" fill="#B1B1B1"/><rect x="192" y="381" width="21" height="1" fill="#B1B1B1"/><rect x="213" y="381" width="86" height="1" fill="#C9C9C9"/><rect x="299" y="381" width="21" height="1" fill="#B1B1B1"/><rect x="192" y="382" width="21" height="1" fill="#B1B1B1"/><rect x="213" y="382" width="86" height="1" fill="#C9C9C9"/><rect x="299" y="382" width="21" height="1" fill="#B1B1B1"/><rect x="192" y="383" width="21" height="1" fill="#B1B1B1"/><rect x="213" y="383" width="86" height="1" fill="#C9C9C9"/><rect x="299" y="383" width="21" height="1" fill="#B1B1B1"/><rect x="149" y="384" width="192" height="1" fill="#C9C9C9"/><rect x="149" y="385" width="192" height="1" fill="#C9C9C9"/><rect x="149" y="386" width="192" height="1" fill="#C9C9C9"/><rect x="149" y="387" width="192" height="1" fill="#C9C9C9"/><rect x="149" y="388" width="192" height="1" fill="#C9C9C9"/><rect x="149" y="389" width="192" height="1" fill="#C9C9C9"/><rect x="149" y="390" width="192" height="1" fill="#C9C9C9"/><rect x="149" y="391" width="192" height="1" fill="#C9C9C9"/><rect x="149" y="392" width="192" height="1" fill="#C9C9C9"/><rect x="149" y="393" width="192" height="1" fill="#C9C9C9"/><rect x="149" y="394" width="192" height="1" fill="#C9C9C9"/><rect x="149" y="395" width="192" height="1" fill="#C9C9C9"/><rect x="149" y="396" width="192" height="1" fill="#C9C9C9"/><rect x="149" y="397" width="192" height="1" fill="#C9C9C9"/><rect x="149" y="398" width="192" height="1" fill="#C9C9C9"/><rect x="149" y="399" width="192" height="1" fill="#C9C9C9"/><rect x="149" y="400" width="192" height="1" fill="#C9C9C9"/><rect x="149" y="401" width="192" height="1" fill="#C9C9C9"/><rect x="149" y="402" width="192" height="1" fill="#C9C9C9"/><rect x="149" y="403" width="192" height="1" fill="#C9C9C9"/><rect x="149" y="404" width="192" height="1" fill="#C9C9C9"/><rect x="192" y="405" width="128" height="1" fill="#C9C9C9"/><rect x="192" y="406" width="128" height="1" fill="#C9C9C9"/><rect x="192" y="407" width="128" height="1" fill="#C9C9C9"/><rect x="192" y="408" width="128" height="1" fill="#C9C9C9"/><rect x="192" y="409" width="128" height="1" fill="#C9C9C9"/><rect x="192" y="410" width="128" height="1" fill="#C9C9C9"/><rect x="192" y="411" width="128" height="1" fill="#C9C9C9"/><rect x="192" y="412" width="128" height="1" fill="#C9C9C9"/><rect x="192" y="413" width="128" height="1" fill="#C9C9C9"/><rect x="192" y="414" width="128" height="1" fill="#C9C9C9"/><rect x="192" y="415" width="128" height="1" fill="#C9C9C9"/><rect x="192" y="416" width="128" height="1" fill="#C9C9C9"/><rect x="192" y="417" width="128" height="1" fill="#C9C9C9"/><rect x="192" y="418" width="128" height="1" fill="#C9C9C9"/><rect x="192" y="419" width="128" height="1" fill="#C9C9C9"/><rect x="192" y="420" width="128" height="1" fill="#C9C9C9"/><rect x="192" y="421" width="128" height="1" fill="#C9C9C9"/><rect x="192" y="422" width="128" height="1" fill="#C9C9C9"/><rect x="192" y="423" width="128" height="1" fill="#C9C9C9"/><rect x="192" y="424" width="128" height="1" fill="#C9C9C9"/><rect x="192" y="425" width="128" height="1" fill="#C9C9C9"/><rect x="192" y="426" width="128" height="1" fill="#C9C9C9"/><rect x="213" y="427" width="86" height="1" fill="#C9C9C9"/><rect x="213" y="428" width="86" height="1" fill="#C9C9C9"/><rect x="213" y="429" width="86" height="1" fill="#C9C9C9"/><rect x="213" y="430" width="86" height="1" fill="#C9C9C9"/><rect x="213" y="431" width="86" height="1" fill="#C9C9C9"/><rect x="213" y="432" width="86" height="1" fill="#C9C9C9"/><rect x="213" y="433" width="86" height="1" fill="#C9C9C9"/><rect x="213" y="434" width="86" height="1" fill="#C9C9C9"/><rect x="213" y="435" width="86" height="1" fill="#C9C9C9"/><rect x="213" y="436" width="86" height="1" fill="#C9C9C9"/><rect x="213" y="437" width="86" height="1" fill="#C9C9C9"/><rect x="213" y="438" width="86" height="1" fill="#C9C9C9"/><rect x="213" y="439" width="86" height="1" fill="#C9C9C9"/><rect x="213" y="440" width="86" height="1" fill="#C9C9C9"/><rect x="213" y="441" width="86" height="1" fill="#C9C9C9"/><rect x="213" y="442" width="86" height="1" fill="#C9C9C9"/><rect x="213" y="443" width="86" height="1" fill="#C9C9C9"/><rect x="213" y="444" width="86" height="1" fill="#C9C9C9"/><rect x="213" y="445" width="86" height="1" fill="#C9C9C9"/><rect x="213" y="446" width="86" height="1" fill="#C9C9C9"/><rect x="213" y="447" width="86" height="1" fill="#C9C9C9"/></svg>