<svg xmlns="http://www.w3.org/2000/svg" viewBox="0 0 512 512" width="512" height="512" shape-rendering="crispEdges"><rect x="427" y="235" width="21" height="1" fill="#F9F9F9" opacity="0.643"/><rect x="427" y="236" width="21" height="1" fill="#F9F9F9" opacity="0.643"/><rect x="427" y="237" width="21" height="1" fill="#F9F9F9" opacity="0.643"/><rect x="427" y="238" width="21" height="1" fill="#F9F9F9" opacity="0.643"/><rect x="427" y="239" width="21" height="1" fill="#F9F9F9" opacity="0.643"/><rect x="427" y="240" width="21" height="1" fill="#F9F9F9" opacity="0.643"/><rect x="427" y="241" width="21" height="1" fill="#F9F9F9" opacity="0.643"/><rect x="427" y="242" width="21" height="1" fill="#F9F9F9" opacity="0.643"/><rect x="427" y="243" width="21" height="1" fill="#F9F9F9" opacity="0.643"/><rect x="427" y="244" width="21" height="1" fill="#F9F9F9" opacity="0.643"/><rect x="427" y="245" width="21" height="1" fill="#F9F9F9" opacity="0.643"/><rect x="427" y="246" width="21" height="1" fill="#F9F9F9" opacity="0.643"/><rect x="427" y="247" width="21" height="1" fill="#F9F9F9" opacity="0.643"/><rect x="427" y="248" width="21" height="1" fill="#F9F9F9" opacity="0.643"/><rect x="427" y="249" width="21" height="1" fill="#F9F9F9" opacity="0.643"/><rect x="427" y="250" width="21" height="1" fill="#F9F9F9" opacity="0.643"/><rect x="427" y="251" width="21" height="1" fill="#F9F9F9" opacity="0.643"/><rect x="427" y="252" width="21" height="1" fill="#F9F9F9" opacity="0.643"/><rect x="427" y="253" width="21" height="1" fill="#F9F9F9" opacity="0.643"/><rect x="427" y="254" width="21" height="1" fill="#F9F9F9" opacity="0.643"/><rect x="427" y="255" width="21" height="1" fill="#F9F9F9" opacity="0.643"/><rect x="405" y="256" width="64" height="1" fill="#F9F9F9" opacity="0.643"/><rect x="405" y="257" width="64" height="1" fill="#F9F9F9" opacity="0.643"/><rect x="405" y="258" width="64" height="1" fill="#F9F9F9" opacity="0.643"/><rect x="405" y="259" width="64" height="1" fill="#F9F9F9" opacity="0.643"/><rect x="405" y="260" width="64" height="1" fill="#F9F9F9" opacity="0.643"/><rect x="405" y="261" width="64" height="1" fill="#F9F9F9" opacity="0.643"/><rect x="405" y="262" width="64" height="1" fill="#F9F9F9" opacity="0.643"/><rect x="405" y="263" width="64" height="1" fill="#F9F9F9" opacity="0.643"/><rect x="405" y="264" width="64" height="1" fill="#F9F9F9" opacity="0.643"/><rect x="405" y="265" width="64" height="1" fill="#F9F9F9" opacity="0.643"/><rect x="405" y="266" width="64" height="1" fill="#F9F9F9" opacity="0.643"/><rect x="405" y="267" width="64" height="1" fill="#F9F9F9" opacity="0.643"/><rect x="405" y="268" width="64" height="1" fill="#F9F9F9" opacity="0.643"/><rect x="405" y="269" width="64" height="1" fill="#F9F9F9" opacity="0.643"/><rect x="405" y="270" width="64" height="1" fill="#F9F9F9" opacity="0.643"/><rect x="405" y="271" width="64" height="1" fill="#F9F9F9" opacity="0.643"/><rect x="405" y="272" width="64" height="1" fill="#F9F9F9" opacity="0.643"/><rect x="405" y="273" width="64" height="1" fill="#F9F9F9" opacity="0.643"/><rect x="405" y="274" width="64" height="1" fill="#F9F9F9" opacity="0.643"/><rect x="405" y="275" width="64" height="1" fill="#F9F9F9" opacity="0.643"/><rect x="405" y="276" width="64" height="1" fill="#F9F9F9" opacity="0.643"/><rect x="405" y="277" width="64" height="1" fill="#F9F9F9" opacity="0.643"/><rect x="405" y="278" width="64" height="1" fill="#F9F9F9" opacity="0.643"/><rect x="405" y="279" width="64" height="1" fill="#F9F9F9" opacity="0.643"/><rect x="405" y="280" width="64" height="1" fill="#F9F9F9" opacity="0.643"/><rect x="405" y="281" width="64" height="1" fill="#F9F9F9" opacity="0.643"/><rect x="405" y="282" width="64" height="1" fill="#F9F9F9" opacity="0.643"/><rect x="405" y="283" width="64" height="1" fill="#F9F9F9" opacity="0.643"/><rect x="405" y="284" width="64" height="1" fill="#F9F9F9" opacity="0.643"/><rect x="405" y="285" width="64" height="1" fill="#F9F9F9" opacity="0.643"/><rect x="405" y="286" width="64" height="1" fill="#F9F9F9" opacity="0.643"/><rect x="405" y="287" width="64" height="1" fill="#F9F9F9" opacity="0.643"/><rect x="405" y="288" width="64" height="1" fill="#F9F9F9" opacity="0.643"/><rect x="405" y="289" width="64" height="1" fill="#F9F9F9" opacity="0.643"/><rect x="405" y="290" width="64" height="1" fill="#F9F9F9" opacity="0.643"/><rect x="405" y="291" width="64" height="1" fill="#F9F9F9" opacity="0.643"/><rect x="405" y="292" width="64" height="1" fill="#F9F9F9" opacity="0.643"/><rect x="405" y="293" width="64" height="1" fill="#F9F9F9" opacity="0.643"/><rect x="405" y="294" width="64" height="1" fill="#F9F9F9" opacity="0.643"/><rect x="405" y="295" width="64" height="1" fill="#F9F9F9" opacity="0.643"/><rect x="405" y="296" width="64" height="1" fill="#F9F9F9" opacity="0.643"/><rect x="405" y="297" width="64" height="1" fill="#F9F9F9" opacity="0.643"/><rect x="405" y="298" width="64" height="1" fill="#F9F9F9" opacity="0.643"/><rect x="427" y="320" width="21" height="1" fill="#F9F9F9" opacity="0.643"/><rect x="427" y="321" width="21" height="1" fill="#F9F9F9" opacity="0.643"/><rect x="427" y="322" width="21" height="1" fill="#F9F9F9" opacity="0.643"/><rect x="427" y="323" width="21" height="1" fill="#F9F9F9" opacity="0.643"/><rect x="427" y="324" width="21" height="1" fill="#F9F9F9" opacity="0.643"/><rect x="427" y="325" width="21" height="1" fill="#F9F9F9" opacity="0.643"/><rect x="427" y="326" width="21" height="1" fill="#F9F9F9" opacity="0.643"/><rect x="427" y="327" width="21" height="1" fill="#F9F9F9" opacity="0.643"/><rect x="427" y="328" width="21" height="1" fill="#F9F9F9" opacity="0.643"/><rect x="427" y="329" width="21" height="1" fill="#F9F9F9" opacity="0.643"/><rect x="427" y="330" width="21" height="1" fill="#F9F9F9" opacity="0.643"/><rect x="427" y="331" width="21" height="1" fill="#F9F9F9" opacity="0.643"/><rect x="427" y="332" width="21" height="1" fill="#F9F9F9" opacity="0.643"/><rect x="427" y="333" width="21" height="1" fill="#F9F9F9" opacity="0.643"/><rect x="427" y="334" width="21" height="1" fill="#F9F9F9" opacity="0.643"/><rect x="427" y="335" width="21" height="1" fill="#F9F9F9" opacity="0.643"/><rect x="427" y="336" width="21" height="1" fill="#F9F9F9" opacity="0.643"/><rect x="427" y="337" width="21" height="1" fill="#F9F9F9" opacity="0.643"/><rect x="427" y="338" width="21" height="1" fill="#F9F9F9" opacity="0.643"/><rect x="427" y="339" width="21" height="1" fill="#F9F9F9" opacity="0.643"/><rect x="427" y="340" width="21" height="1" fill="#F9F9F9" opacity="0.643"/><rect x="427" y="363" width="21" height="1" fill="#F9F9F9" opacity="0.643"/><rect x="427" y="364" width="21" height="1" fill="#F9F9F9" opacity="0.643"/><rect x="427" y="365" width="21" height="1" fill="#F9F9F9" opacity="0.643"/><rect x="427" y="366" width="21" height="1" fill="#F9F9F9" opacity="0.643"/><rect x="427" y="367" width="21" height="1" fill="#F9F9F9" opacity="0.643"/><rect x="427" y="368" width="21" height="1" fill="#F9F9F9" opacity="0.643"/><rect x="427" y="369" width="21" height="1" fill="#F9F9F9" opacity="0.643"/><rect x="427" y="370" width="21" height="1" fill="#F9F9F9" opacity="0.643"/><rect x="427" y="371" width="21" height="1" fill="#F9F9F9" opacity="0.643"/><rect x="427" y="372" width="21" height="1" fill="#F9F9F9" opacity="0.643"/><rect x="427" y="373" width="21" height="1" fill="#F9F9F9" opacity="0.643"/><rect x="427" y="374" width="21" height="1" fill="#F9F9F9" opacity="0.643"/><rect x="427" y="375" width="21" height="1" fill="#F9F9F9" opacity="0.643"/><rect x="427" y="376" width="21" height="1" fill="#F9F9F9" opacity="0.643"/><rect x="427" y="377" width="21" height="1" fill="#F9F9F9" opacity="0.643"/><rect x="427" y="378" width="21" height="1" fill="#F9F9F9" opacity="0.643"/><rect x="427" y="379" width="21" height="1" fill="#F9F9F9" opacity="0.643"/><rect x="427" y="380" width="21" height="1" fill="#F9F9F9" opacity="0.643"/><rect x="427" y="381" width="21" height="1" fill="#F9F9F9" opacity="0.643"/><rect x="427" y="382" width="21" height="1" fill="#F9F9F9" opacity="0.643"/><rect x="427" y="383" width="21" height="1" fill="#F9F9F9" opacity="0.643"/><rect x="299" y="384" width="21" height="1" fill="#000000"/><rect x="299" y="385" width="21" height="1" fill="#000000"/><rect x="299" y="386" width="21" height="1" fill="#000000"/><rect x="299" y="387" width="21" height="1" fill="#000000"/><rect x="299" y="388" width="21" height="1" fill="#000000"/><rect x="299" y="389" width="21" height="1" fill="#000000"/><rect x="299" y="390" width="21" height="1" fill="#000000"/><rect x="299" y="391" width="21" height="1" fill="#000000"/><rect x="299" y="392" width="21" height="1" fill="#000000"/><rect x="299" y="393" width="21" height="1" fill="#000000"/><rect x="299" y="394" width="21" height="1" fill="#000000"/><rect x="299" y="395" width="21" height="1" fill="#000000"/><rect x="299" y="396" width="21" height="1" fill="#000000"/><rect x="299" y="397" width="21" height="1" fill="#000000"/><rect x="299" y="398" width="21" height="1" fill="#000000"/><rect x="299" y="399" width="21" height="1" fill="#000000"/><rect x="299" y="400" width="21" height="1" fill="#000000"/><rect x="299" y="401" width="21" height="1" fill="#000000"/><rect x="299" y="402" width="21" height="1" fill="#000000"/><rect x="299" y="403" width="21" height="1" fill="#000000"/><rect x="299" y="404" width="21" height="1" fill="#000000"/><rect x="277" y="405" width="22" height="1" fill="#000000"/><rect x="299" y="405" width="21" height="1" fill="#855213"/><rect x="320" y="405" width="21" height="1" fill="#000000"/><rect x="384" y="405" width="107" height="1" fill="#000000"/><rect x="277" y="406" width="22" height="1" fill="#000000"/><rect x="299" y="406" width="21" height="1" fill="#855213"/><rect x="320" y="406" width="21" height="1" fill="#000000"/><rect x="384" y="406" width="107" height="1" fill="#000000"/><rect x="277" y="407" width="22" height="1" fill="#000000"/><rect x="299" y="407" width="21" height="1" fill="#855213"/><rect x="320" y="407" width="21" height="1" fill="#000000"/><rect x="384" y="407" width="107" height="1" fill="#000000"/><rect x="277" y="408" width="22" height="1" fill="#000000"/><rect x="299" y="408" width="21" height="1" fill="#855213"/><rect x="320" y="408" width="21" height="1" fill="#000000"/><rect x="384" y="408" width="107" height="1" fill="#000000"/><rect x="277" y="409" width="22" height="1" fill="#000000"/><rect x="299" y="409" width="21" height="1" fill="#855213"/><rect x="320" y="409" width="21" height="1" fill="#000000"/><rect x="384" y="409" width="107" height="1" fill="#000000"/><rect x="277" y="410" width="22" height="1" fill="#000000"/><rect x="299" y="410" width="21" height="1" fill="#855213"/><rect x="320" y="410" width="21" height="1" fill="#000000"/><rect x="384" y="410" width="107" height="1" fill="#000000"/><rect x="277" y="411" width="22" height="1" fill="#000000"/><rect x="299" y="411" width="21" height="1" fill="#855213"/><rect x="320" y="411" width="21" height="1" fill="#000000"/><rect x="384" y="411" width="107" height="1" fill="#000000"/><rect x="277" y="412" width="22" height="1" fill="#000000"/><rect x="299" y="412" width="21" height="1" fill="#855213"/><rect x="320" y="412" width="21" height="1" fill="#000000"/><rect x="384" y="412" width="107" height="1" fill="#000000"/><rect x="277" y="413" width="22" height="1" fill="#000000"/><rect x="299" y="413" width="21" height="1" fill="#855213"/><rect x="320" y="413" width="21" height="1" fill="#000000"/><rect x="384" y="413" width="107" height="1" fill="#000000"/><rect x="277" y="414" width="22" height="1" fill="#000000"/><rect x="299" y="414" width="21" height="1" fill="#855213"/><rect x="320" y="414" width="21" height="1" fill="#000000"/><rect x="384" y="414" width="107" height="1" fill="#000000"/><rect x="277" y="415" width="22" height="1" fill="#000000"/><rect x="299" y="415" width="21" height="1" fill="#855213"/><rect x="320" y="415" width="21" height="1" fill="#000000"/><rect x="384" y="415" width="107" height="1" fill="#000000"/><rect x="277" y="416" width="22" height="1" fill="#000000"/><rect x="299" y="416" width="21" height="1" fill="#855213"/><rect x="320" y="416" width="21" height="1" fill="#000000"/><rect x="384" y="416" width="107" height="1" fill="#000000"/><rect x="277" y="417" width="22" height="1" fill="#000000"/><rect x="299" y="417" width="21" height="1" fill="#855213"/><rect x="320" y="417" width="21" height="1" fill="#000000"/><rect x="384" y="417" width="107" height="1" fill="#000000"/><rect x="277" y="418" width="22" height="1" fill="#000000"/><rect x="299" y="418" width="21" height="1" fill="#855213"/><rect x="320" y="418" width="21" height="1" fill="#000000"/><rect x="384" y="418" width="107" height="1" fill="#000000"/><rect x="277" y="419" width="22" height="1" fill="#000000"/><rect x="299" y="419" width="21" height="1" fill="#855213"/><rect x="320" y="419" width="21" height="1" fill="#000000"/><rect x="384" y="419" width="107" height="1" fill="#000000"/><rect x="277" y="420" width="22" height="1" fill="#000000"/><rect x="299" y="420" width="21" height="1" fill="#855213"/><rect x="320" y="420" width="21" height="1" fill="#000000"/><rect x="384" y="420" width="107" height="1" fill="#000000"/><rect x="277" y="421" width="22" height="1" fill="#000000"/><rect x="299" y="421" width="21" height="1" fill="#855213"/><rect x="320" y="421" width="21" height="1" fill="#000000"/><rect x="384" y="421" width="107" height="1" fill="#000000"/><rect x="277" y="422" width="22" height="1" fill="#000000"/><rect x="299" y="422" width="21" height="1" fill="#855213"/><rect x="320" y="422" width="21" height="1" fill="#000000"/><rect x="384" y="422" width="107" height="1" fill="#000000"/><rect x="277" y="423" width="22" height="1" fill="#000000"/><rect x="299" y="423" width="21" height="1" fill="#855213"/><rect x="320" y="423" width="21" height="1" fill="#000000"/><rect x="384" y="423" width="107" height="1" fill="#000000"/><rect x="277" y="424" width="22" height="1" fill="#000000"/><rect x="299" y="424" width="21" height="1" fill="#855213"/><rect x="320" y="424" width="21" height="1" fill="#000000"/><rect x="384" y="424" width="107" height="1" fill="#000000"/><rect x="277" y="425" width="22" height="1" fill="#000000"/><rect x="299" y="425" width="21" height="1" fill="#855213"/><rect x="320" y="425" width="21" height="1" fill="#000000"/><rect x="384" y="425" width="107" height="1" fill="#000000"/><rect x="277" y="426" width="22" height="1" fill="#000000"/><rect x="299" y="426" width="21" height="1" fill="#855213"/><rect x="320" y="426" width="21" height="1" fill="#000000"/><rect x="384" y="426" width="107" height="1" fill="#000000"/><rect x="299" y="427" width="21" height="1" fill="#000000"/><rect x="320" y="427" width="21" height="1" fill="#855213"/><rect x="341" y="427" width="22" height="1" fill="#000000"/><rect x="384" y="427" width="21" height="1" fill="#000000"/><rect x="405" y="427" width="64" height="1" fill="#855213"/><rect x="469" y="427" width="22" height="1" fill="#000000"/><rect x="299" y="428" width="21" height="1" fill="#000000"/><rect x="320" y="428" width="21" height="1" fill="#855213"/><rect x="341" y="428" width="22" height="1" fill="#000000"/><rect x="384" y="428" width="21" height="1" fill="#000000"/><rect x="405" y="428" width="64" height="1" fill="#855213"/><rect x="469" y="428" width="22" height="1" fill="#000000"/><rect x="299" y="429" width="21" height="1" fill="#000000"/><rect x="320" y="429" width="21" height="1" fill="#855213"/><rect x="341" y="429" width="22" height="1" fill="#000000"/><rect x="384" y="429" width="21" height="1" fill="#000000"/><rect x="405" y="429" width="64" height="1" fill="#855213"/><rect x="469" y="429" width="22" height="1" fill="#000000"/><rect x="299" y="430" width="21" height="1" fill="#000000"/><rect x="320" y="430" width="21" height="1" fill="#855213"/><rect x="341" y="430" width="22" height="1" fill="#000000"/><rect x="384" y="430" width="21" height="1" fill="#000000"/><rect x="405" y="430" width="64" height="1" fill="#855213"/><rect x="469" y="430" width="22" height="1" fill="#000000"/><rect x="299" y="431" width="21" height="1" fill="#000000"/><rect x="320" y="431" width="21" height="1" fill="#855213"/><rect x="341" y="431" width="22" height="1" fill="#000000"/><rect x="384" y="431" width="21" height="1" fill="#000000"/><rect x="405" y="431" width="64" height="1" fill="#855213"/><rect x="469" y="431" width="22" height="1" fill="#000000"/><rect x="299" y="432" width="21" height="1" fill="#000000"/><rect x="320" y="432" width="21" height="1" fill="#855213"/><rect x="341" y="432" width="22" height="1" fill="#000000"/><rect x="384" y="432" width="21" height="1" fill="#000000"/><rect x="405" y="432" width="64" height="1" fill="#855213"/><rect x="469" y="432" width="22" height="1" fill="#000000"/><rect x="299" y="433" width="21" height="1" fill="#000000"/><rect x="320" y="433" width="21" height="1" fill="#855213"/><rect x="341" y="433" width="22" height="1" fill="#000000"/><rect x="384" y="433" width="21" height="1" fill="#000000"/><rect x="405" y="433" width="64" height="1" fill="#855213"/><rect x="469" y="433" width="22" height="1" fill="#000000"/><rect x="299" y="434" width="21" height="1" fill="#000000"/><rect x="320" y="434" width="21" height="1" fill="#855213"/><rect x="341" y="434" width="22" height="1" fill="#000000"/><rect x="384" y="434" width="21" height="1" fill="#000000"/><rect x="405" y="434" width="64" height="1" fill="#855213"/><rect x="469" y="434" width="22" height="1" fill="#000000"/><rect x="299" y="435" width="21" height="1" fill="#000000"/><rect x="320" y="435" width="21" height="1" fill="#855213"/><rect x="341" y="435" width="22" height="1" fill="#000000"/><rect x="384" y="435" width="21" height="1" fill="#000000"/><rect x="405" y="435" width="64" height="1" fill="#855213"/><rect x="469" y="435" width="22" height="1" fill="#000000"/><rect x="299" y="436" width="21" height="1" fill="#000000"/><rect x="320" y="436" width="21" height="1" fill="#855213"/><rect x="341" y="436" width="22" height="1" fill="#000000"/><rect x="384" y="436" width="21" height="1" fill="#000000"/><rect x="405" y="436" width="64" height="1" fill="#855213"/><rect x="469" y="436" width="22" height="1" fill="#000000"/><rect x="299" y="437" width="21" height="1" fill="#000000"/><rect x="320" y="437" width="21" height="1" fill="#855213"/><rect x="341" y="437" width="22" height="1" fill="#000000"/><rect x="384" y="437" width="21" height="1" fill="#000000"/><rect x="405" y="437" width="64" height="1" fill="#855213"/><rect x="469" y="437" width="22" height="1" fill="#000000"/><rect x="299" y="438" width="21" height="1" fill="#000000"/><rect x="320" y="438" width="21" height="1" fill="#855213"/><rect x="341" y="438" width="22" height="1" fill="#000000"/><rect x="384" y="438" width="21" height="1" fill="#000000"/><rect x="405" y="438" width="64" height="1" fill="#855213"/><rect x="469" y="438" width="22" height="1" fill="#000000"/><rect x="299" y="439" width="21" height="1" fill="#000000"/><rect x="320" y="439" width="21" height="1" fill="#855213"/><rect x="341" y="439" width="22" height="1" fill="#000000"/><rect x="384" y="439" width="21" height="1" fill="#000000"/><rect x="405" y="439" width="64" height="1" fill="#855213"/><rect x="469" y="439" width="22" height="1" fill="#000000"/><rect x="299" y="440" width="21" height="1" fill="#000000"/><rect x="320" y="440" width="21" height="1" fill="#855213"/><rect x="341" y="440" width="22" height="1" fill="#000000"/><rect x="384" y="440" width="21" height="1" fill="#000000"/><rect x="405" y="440" width="64" height="1" fill="#855213"/><rect x="469" y="440" width="22" height="1" fill="#000000"/><rect x="299" y="441" width="21" height="1" fill="#000000"/><rect x="320" y="441" width="21" height="1" fill="#855213"/><rect x="341" y="441" width="22" height="1" fill="#000000"/><rect x="384" y="441" width="21" height="1" fill="#000000"/><rect x="405" y="441" width="64" height="1" fill="#855213"/><rect x="469" y="441" width="22" height="1" fill="#000000"/><rect x="299" y="442" width="21" height="1" fill="#000000"/><rect x="320" y="442" width="21" height="1" fill="#855213"/><rect x="341" y="442" width="22" height="1" fill="#000000"/><rect x="384" y="442" width="21" height="1" fill="#000000"/><rect x="405" y="442" width="64" height="1" fill="#855213"/><rect x="469" y="442" width="22" height="1" fill="#000000"/><rect x="299" y="443" width="21" height="1" fill="#000000"/><rect x="320" y="443" width="21" height="1" fill="#855213"/><rect x="341" y="443" width="22" height="1" fill="#000000"/><rect x="384" y="443" width="21" height="1" fill="#000000"/><rect x="405" y="443" width="64" height="1" fill="#855213"/><rect x="469" y="443" width="22" height="1" fill="#000000"/><rect x="299" y="444" width="21" height="1" fill="#000000"/><rect x="320" y="444" width="21" height="1" fill="#855213"/><rect x="341" y="444" width="22" height="1" fill="#000000"/><rect x="384" y="444" width="21" height="1" fill="#000000"/><rect x="405" y="444" width="64" height="1" fill="#855213"/><rect x="469" y="444" width="22" height="1" fill="#000000"/><rect x="299" y="445" width="21" height="1" fill="#000000"/><rect x="320" y="445" width="21" height="1" fill="#855213"/><rect x="341" y="445" width="22" height="1" fill="#000000"/><rect x="384" y="445" width="21" height="1" fill="#000000"/><rect x="405" y="445" width="64" height="1" fill="#855213"/><rect x="469" y="445" width="22" height="1" fill="#000000"/><rect x="299" y="446" width="21" height="1" fill="#000000"/><rect x="320" y="446" width="21" height="1" fill="#855213"/><rect x="341" y="446" width="22" height="1" fill="#000000"/><rect x="384" y="446" width="21" height="1" fill="#000000"/><rect x="405" y="446" width="64" height="1" fill="#855213"/><rect x="469" y="446" width="22" height="1" fill="#000000"/><rect x="299" y="447" width="21" height="1" fill="#000000"/><rect x="320" y="447" width="21" height="1" fill="#855213"/><rect x="341" y="447" width="22" height="1" fill="#000000"/><rect x="384" y="447" width="21" height="1" fill="#000000"/><rect x="405" y="447" width="64" height="1" fill="#855213"/><rect x="469" y="447" width="22" height="1" fill="#000000"/><rect x="320" y="448" width="21" height="1" fill="#000000"/><rect x="341" y="448" width="22" height="1" fill="#855213"/><rect x="363" y="448" width="42" height="1" fill="#000000"/><rect x="405" y="448" width="22" height="1" fill="#673C0A"/><rect x="427" y="448" width="21" height="1" fill="#855213"/><rect x="448" y="448" width="21" height="1" fill="#673C0A"/><rect x="469" y="448" width="22" height="1" fill="#000000"/><rect x="320" y="449" width="21" height="1" fill="#000000"/><rect x="341" y="449" width="22" height="1" fill="#855213"/><rect x="363" y="449" width="42" height="1" fill="#000000"/><rect x="405" y="449" width="22" height="1" fill="#673C0A"/><rect x="427" y="449" width="21" height="1" fill="#855213"/><rect x="448" y="449" width="21" height="1" fill="#673C0A"/><rect x="469" y="449" width="22" height="1" fill="#000000"/><rect x="320" y="450" width="21" height="1" fill="#000000"/><rect x="341" y="450" width="22" height="1" fill="#855213"/><rect x="363" y="450" width="42" height="1" fill="#000000"/><rect x="405" y="450" width="22" height="1" fill="#673C0A"/><rect x="427" y="450" width="21" height="1" fill="#855213"/><rect x="448" y="450" width="21" height="1" fill="#673C0A"/><rect x="469" y="450" width="22" height="1" fill="#000000"/><rect x="320" y="451" width="21" height="1" fill="#000000"/><rect x="341" y="451" width="22" height="1" fill="#855213"/><rect x="363" y="451" width="42" height="1" fill="#000000"/><rect x="405" y="451" width="22" height="1" fill="#673C0A"/><rect x="427" y="451" width="21" height="1" fill="#855213"/><rect x="448" y="451" width="21" height="1" fill="#673C0A"/><rect x="469" y="451" width="22" height="1" fill="#000000"/><rect x="320" y="452" width="21" height="1" fill="#000000"/><rect x="341" y="452" width="22" height="1" fill="#855213"/><rect x="363" y="452" width="42" height="1" fill="#000000"/><rect x="405" y="452" width="22" height="1" fill="#673C0A"/><rect x="427" y="452" width="21" height="1" fill="#855213"/><rect x="448" y="452" width="21" height="1" fill="#673C0A"/><rect x="469" y="452" width="22" height="1" fill="#000000"/><rect x="320" y="453" width="21" height="1" fill="#000000"/><rect x="341" y="453" width="22" height="1" fill="#855213"/><rect x="363" y="453" width="42" height="1" fill="#000000"/><rect x="405" y="453" width="22" height="1" fill="#673C0A"/><rect x="427" y="453" width="21" height="1" fill="#855213"/><rect x="448" y="453" width="21" height="1" fill="#673C0A"/><rect x="469" y="453" width="22" height="1" fill="#000000"/><rect x="320" y="454" width="21" height="1" fill="#000000"/><rect x="341" y="454" width="22" height="1" fill="#855213"/><rect x="363" y="454" width="42" height="1" fill="#000000"/><rect x="405" y="454" width="22" height="1" fill="#673C0A"/><rect x="427" y="454" width="21" height="1" fill="#855213"/><rect x="448" y="454" width="21" height="1" fill="#673C0A"/><rect x="469" y="454" width="22" height="1" fill="#000000"/><rect x="320" y="455" width="21" height="1" fill="#000000"/><rect x="341" y="455" width="22" height="1" fill="#855213"/><rect x="363" y="455" width="42" height="1" fill="#000000"/><rect x="405" y="455" width="22" height="1" fill="#673C0A"/><rect x="427" y="455" width="21" height="1" fill="#855213"/><rect x="448" y="455" width="21" height="1" fill="#673C0A"/><rect x="469" y="455" width="22" height="1" fill="#000000"/><rect x="320" y="456" width="21" height="1" fill="#000000"/><rect x="341" y="456" width="22" height="1" fill="#855213"/><rect x="363" y="456" width="42" height="1" fill="#000000"/><rect x="405" y="456" width="22" height="1" fill="#673C0A"/><rect x="427" y="456" width="21" height="1" fill="#855213"/><rect x="448" y="456" width="21" height="1" fill="#673C0A"/><rect x="469" y="456" width="22" height="1" fill="#000000"/><rect x="320" y="457" width="21" height="1" fill="#000000"/><rect x="341" y="457" width="22" height="1" fill="#855213"/><rect x="363" y="457" width="42" height="1" fill="#000000"/><rect x="405" y="457" width="22" height="1" fill="#673C0A"/><rect x="427" y="457" width="21" height="1" fill="#855213"/><rect x="448" y="457" width="21" height="1" fill="#673C0A"/><rect x="469" y="457" width="22" height="1" fill="#000000"/><rect x="320" y="458" width="21" height="1" fill="#000000"/><rect x="341" y="458" width="22" height="1" fill="#855213"/><rect x="363" y="458" width="42" height="1" fill="#000000"/><rect x="405" y="458" width="22" height="1" fill="#673C0A"/><rect x="427" y="458" width="21" height="1" fill="#855213"/><rect x="448" y="458" width="21" height="1" fill="#673C0A"/><rect x="469" y="458" width="22" height="1" fill="#000000"/><rect x="320" y="459" width="21" height="1" fill="#000000"/><rect x="341" y="459" width="22" height="1" fill="#855213"/><rect x="363" y="459" width="42" height="1" fill="#000000"/><rect x="405" y="459" width="22" height="1" fill="#673C0A"/><rect x="427" y="459" width="21" height="1" fill="#855213"/><rect x="448" y="459" width="21" height="1" fill="#673C0A"/><rect x="469" y="459" width="22" height="1" fill="#000000"/><rect x="320" y="460" width="21" height="1" fill="#000000"/><rect x="341" y="460" width="22" height="1" fill="#855213"/><rect x="363" y="460" width="42" height="1" fill="#000000"/><rect x="405" y="460" width="22" height="1" fill="#673C0A"/><rect x="427" y="460" width="21" height="1" fill="#855213"/><rect x="448" y="460" width="21" height="1" fill="#673C0A"/><rect x="469" y="460" width="22" height="1" fill="#000000"/><rect x="320" y="461" width="21" height="1" fill="#000000"/><rect x="341" y="461" width="22" height="1" fill="#855213"/><rect x="363" y="461" width="42" height="1" fill="#000000"/><rect x="405" y="461" width="22" height="1" fill="#673C0A"/><rect x="427" y="461" width="21" height="1" fill="#855213"/><rect x="448" y="461" width="21" height="1" fill="#673C0A"/><rect x="469" y="461" width="22" height="1" fill="#000000"/><rect x="320" y="462" width="21" height="1" fill="#000000"/><rect x="341" y="462" width="22" height="1" fill="#855213"/><rect x="363" y="462" width="42" height="1" fill="#000000"/><rect x="405" y="462" width="22" height="1" fill="#673C0A"/><rect x="427" y="462" width="21" height="1" fill="#855213"/><rect x="448" y="462" width="21" height="1" fill="#673C0A"/><rect x="469" y="462" width="22" height="1" fill="#000000"/><rect x="320" y="463" width="21" height="1" fill="#000000"/><rect x="341" y="463" width="22" height="1" fill="#855213"/><rect x="363" y="463" width="42" height="1" fill="#000000"/><rect x="405" y="463" width="22" height="1" fill="#673C0A"/><rect x="427" y="463" width="21" height="1" fill="#855213"/><rect x="448" y="463" width="21" height="1" fill="#673C0A"/><rect x="469" y="463" width="22" height="1" fill="#000000"/><rect x="320" y="464" width="21" height="1" fill="#000000"/><rect x="341" y="464" width="22" height="1" fill="#855213"/><rect x="363" y="464" width="42" height="1" fill="#000000"/><rect x="405" y="464" width="22" height="1" fill="#673C0A"/><rect x="427" y="464" width="21" height="1" fill="#855213"/><rect x="448" y="464" width="21" height="1" fill="#673C0A"/><rect x="469" y="464" width="22" height="1" fill="#000000"/><rect x="320" y="465" width="21" height="1" fill="#000000"/><rect x="341" y="465" width="22" height="1" fill="#855213"/><rect x="363" y="465" width="42" height="1" fill="#000000"/><rect x="405" y="465" width="22" height="1" fill="#673C0A"/><rect x="427" y="465" width="21" height="1" fill="#855213"/><rect x="448" y="465" width="21" height="1" fill="#673C0A"/><rect x="469" y="465" width="22" height="1" fill="#000000"/><rect x="320" y="466" width="21" height="1" fill="#000000"/><rect x="341" y="466" width="22" height="1" fill="#855213"/><rect x="363" y="466" width="42" height="1" fill="#000000"/><rect x="405" y="466" width="22" height="1" fill="#673C0A"/><rect x="427" y="466" width="21" height="1" fill="#855213"/><rect x="448" y="466" width="21" height="1" fill="#673C0A"/><rect x="469" y="466" width="22" height="1" fill="#000000"/><rect x="320" y="467" width="21" height="1" fill="#000000"/><rect x="341" y="467" width="22" height="1" fill="#855213"/><rect x="363" y="467" width="42" height="1" fill="#000000"/><rect x="405" y="467" width="22" height="1" fill="#673C0A"/><rect x="427" y="467" width="21" height="1" fill="#855213"/><rect x="448" y="467" width="21" height="1" fill="#673C0A"/><rect x="469" y="467" width="22" height="1" fill="#000000"/><rect x="320" y="468" width="21" height="1" fill="#000000"/><rect x="341" y="468" width="22" height="1" fill="#855213"/><rect x="363" y="468" width="42" height="1" fill="#000000"/><rect x="405" y="468" width="22" height="1" fill="#673C0A"/><rect x="427" y="468" width="21" height="1" fill="#855213"/><rect x="448" y="468" width="21" height="1" fill="#673C0A"/><rect x="469" y="468" width="22" height="1" fill="#000000"/><rect x="341" y="469" width="22" height="1" fill="#000000"/><rect x="363" y="469" width="64" height="1" fill="#855213"/><rect x="427" y="469" width="21" height="1" fill="#673C0A"/><rect x="448" y="469" width="21" height="1" fill="#000000"/><rect x="341" y="470" width="22" height="1" fill="#000000"/><rect x="363" y="470" width="64" height="1" fill="#855213"/><rect x="427" y="470" width="21" height="1" fill="#673C0A"/><rect x="448" y="470" width="21" height="1" fill="#000000"/><rect x="341" y="471" width="22" height="1" fill="#000000"/><rect x="363" y="471" width="64" height="1" fill="#855213"/><rect x="427" y="471" width="21" height="1" fill="#673C0A"/><rect x="448" y="471" width="21" height="1" fill="#000000"/><rect x="341" y="472" width="22" height="1" fill="#000000"/><rect x="363" y="472" width="64" height="1" fill="#855213"/><rect x="427" y="472" width="21" height="1" fill="#673C0A"/><rect x="448" y="472" width="21" height="1" fill="#000000"/><rect x="341" y="473" width="22" height="1" fill="#000000"/><rect x="363" y="473" width="64" height="1" fill="#855213"/><rect x="427" y="473" width="21" height="1" fill="#673C0A"/><rect x="448" y="473" width="21" height="1" fill="#000000"/><rect x="341" y="474" width="22" height="1" fill="#000000"/><rect x="363" y="474" width="64" height="1" fill="#855213"/><rect x="427" y="474" width="21" height="1" fill="#673C0A"/><rect x="448" y="474" width="21" height="1" fill="#000000"/><rect x="341" y="475" width="22" height="1" fill="#000000"/><rect x="363" y="475" width="64" height="1" fill="#855213"/><rect x="427" y="475" width="21" height="1" fill="#673C0A"/><rect x="448" y="475" width="21" height="1" fill="#000000"/><rect x="341" y="476" width="22" height="1" fill="#000000"/><rect x="363" y="476" width="64" height="1" fill="#855213"/><rect x="427" y="476" width="21" height="1" fill="#673C0A"/><rect x="448" y="476" width="21" height="1" fill="#000000"/><rect x="341" y="477" width="22" height="1" fill="#000000"/><rect x="363" y="477" width="64" height="1" fill="#855213"/><rect x="427" y="477" width="21" height="1" fill="#673C0A"/><rect x="448" y="477" width="21" height="1" fill="#000000"/><rect x="341" y="478" width="22" height="1" fill="#000000"/><rect x="363" y="478" width="64" height="1" fill="#855213"/><rect x="427" y="478" width="21" height="1" fill="#673C0A"/><rect x="448" y="478" width="21" height="1" fill="#000000"/><rect x="341" y="479" width="22" height="1" fill="#000000"/><rect x="363" y="479" width="64" height="1" fill="#855213"/><rect x="427" y="479" width="21" height="1" fill="#673C0A"/><rect x="448" y="479" width="21" height="1" fill="#000000"/><rect x="341" y="480" width="22" height="1" fill="#000000"/><rect x="363" y="480" width="64" height="1" fill="#855213"/><rect x="427" y="480" width="21" height="1" fill="#673C0A"/><rect x="448" y="480" width="21" height="1" fill="#000000"/><rect x="341" y="481" width="22" height="1" fill="#000000"/><rect x="363" y="481" width="64" height="1" fill="#855213"/><rect x="427" y="481" width="21" height="1" fill="#673C0A"/><rect x="448" y="481" width="21" height="1" fill="#000000"/><rect x="341" y="482" width="22" height="1" fill="#000000"/><rect x="363" y="482" width="64" height="1" fill="#855213"/><rect x="427" y="482" width="21" height="1" fill="#673C0A"/><rect x="448" y="482" width="21" height="1" fill="#000000"/><rect x="341" y="483" width="22" height="1" fill="#000000"/><rect x="363" y="483" width="64" height="1" fill="#855213"/><rect x="427" y="483" width="21" height="1" fill="#673C0A"/><rect x="448" y="483" width="21" height="1" fill="#000000"/><rect x="341" y="484" width="22" height="1" fill="#000000"/><rect x="363" y="484" width="64" height="1" fill="#855213"/><rect x="427" y="484" width="21" height="1" fill="#673C0A"/><rect x="448" y="484" width="21" height="1" fill="#000000"/><rect x="341" y="485" width="22" height="1" fill="#000000"/><rect x="363" y="485" width="64" height="1" fill="#855213"/><rect x="427" y="485" width="21" height="1" fill="#673C0A"/><rect x="448" y="485" width="21" height="1" fill="#000000"/><rect x="341" y="486" width="22" height="1" fill="#000000"/><rect x="363" y="486" width="64" height="1" fill="#855213"/><rect x="427" y="486" width="21" height="1" fill="#673C0A"/><rect x="448" y="486" width="21" height="1" fill="#000000"/><rect x="341" y="487" width="22" height="1" fill="#000000"/><rect x="363" y="487" width="64" height="1" fill="#855213"/><rect x="427" y="487" width="21" height="1" fill="#673C0A"/><rect x="448" y="487" width="21" height="1" fill="#000000"/><rect x="341" y="488" width="22" height="1" fill="#000000"/><rect x="363" y="488" width="64" height="1" fill="#855213"/><rect x="427" y="488" width="21" height="1" fill="#673C0A"/><rect x="448" y="488" width="21" height="1" fill="#000000"/><rect x="341" y="489" width="22" height="1" fill="#000000"/><rect x="363" y="489" width="64" height="1" fill="#855213"/><rect x="427" y="489" width="21" height="1" fill="#673C0A"/><rect x="448" y="489" width="21" height="1" fill="#000000"/><rect x="341" y="490" width="22" height="1" fill="#000000"/><rect x="363" y="490" width="64" height="1" fill="#855213"/><rect x="427" y="490" width="21" height="1" fill="#673C0A"/><rect x="448" y="490" width="21" height="1" fill="#000000"/><rect x="363" y="491" width="85" height="1" fill="#000000"/><rect x="363" y="492" width="85" height="1" fill="#000000"/><rect x="363" y="493" width="85" height="1" fill="#000000"/><rect x="363" y="494" width="85" height="1" fill="#000000"/><rect x="363" y="495" width="85" height="1" fill="#000000"/><rect x="363" y="496" width="85" height="1" fill="#000000"/><rect x="363" y="497" width="85" height="1" fill="#000000"/><rect x="363" y="498" width="85" height="1" fill="#000000"/><rect x="363" y="499" width="85" height="1" fill="#000000"/><rect x="363" y="500" width="85" height="1" fill="#000000"/><rect x="363" y="501" width="85" height="1" fill="#000000"/><rect x="363" y="502" width="85" height="1" fill="#000000"/><rect x="363" y="503" width="85" height="1" fill="#000000"/><rect x="363" y="504" width="85" height="1" fill="#000000"/><rect x="363" y="505" width="85" height="1" fill="#000000"/><rect x="363" y="506" width="85" height="1" fill="#000000"/><rect x="363" y="507" width="85" height="1" fill="#000000"/><rect x="363" y="508" width="85" height="1" fill="#000000"/><rect x="363" y="509" width="85" height="1" fill="#000000"/><rect x="363" y="510" width="85" height="1" fill="#000000"/><rect x="363" y="511" width="85" height="1" fill="#000000"/></svg>