<svg xmlns="http://www.w3.org/2000/svg" viewBox="0 0 512 512" width="512" height="512" shape-rendering="crispEdges"><rect x="299" y="363" width="149" height="1" fill="#000000"/><rect x="299" y="364" width="149" height="1" fill="#000000"/><rect x="299" y="365" width="149" height="1" fill="#000000"/><rect x="299" y="366" width="149" height="1" fill="#000000"/><rect x="299" y="367" width="149" height="1" fill="#000000"/><rect x="299" y="368" width="149" height="1" fill="#000000"/><rect x="299" y="369" width="149" height="1" fill="#000000"/><rect x="299" y="370" width="149" height="1" fill="#000000"/><rect x="299" y="371" width="149" height="1" fill="#000000"/><rect x="299" y="372" width="149" height="1" fill="#000000"/><rect x="299" y="373" width="149" height="1" fill="#000000"/><rect x="299" y="374" width="149" height="1" fill="#000000"/><rect x="299" y="375" width="149" height="1" fill="#000000"/><rect x="299" y="376" width="149" height="1" fill="#000000"/><rect x="299" y="377" width="149" height="1" fill="#000000"/><rect x="299" y="378" width="149" height="1" fill="#000000"/><rect x="299" y="379" width="149" height="1" fill="#000000"/><rect x="299" y="380" width="149" height="1" fill="#000000"/><rect x="299" y="381" width="149" height="1" fill="#000000"/><rect x="299" y="382" width="149" height="1" fill="#000000"/><rect x="299" y="383" width="149" height="1" fill="#000000"/><rect x="277" y="384" width="22" height="1" fill="#000000"/><rect x="299" y="384" width="106" height="1" fill="#595959"/><rect x="405" y="384" width="22" height="1" fill="#0042FE"/><rect x="427" y="384" width="21" height="1" fill="#000000"/><rect x="277" y="385" width="22" height="1" fill="#000000"/><rect x="299" y="385" width="106" height="1" fill="#595959"/><rect x="405" y="385" width="22" height="1" fill="#0042FE"/><rect x="427" y="385" width="21" height="1" fill="#000000"/><rect x="277" y="386" width="22" height="1" fill="#000000"/><rect x="299" y="386" width="106" height="1" fill="#595959"/><rect x="405" y="386" width="22" height="1" fill="#0042FE"/><rect x="427" y="386" width="21" height="1" fill="#000000"/><rect x="277" y="387" width="22" height="1" fill="#000000"/><rect x="299" y="387" width="106" height="1" fill="#595959"/><rect x="405" y="387" width="22" height="1" fill="#0042FE"/><rect x="427" y="387" width="21" height="1" fill="#000000"/><rect x="277" y="388" width="22" height="1" fill="#000000"/><rect x="299" y="388" width="106" height="1" fill="#595959"/><rect x="405" y="388" width="22" height="1" fill="#0042FE"/><rect x="427" y="388" width="21" height="1" fill="#000000"/><rect x="277" y="389" width="22" height="1" fill="#000000"/><rect x="299" y="389" width="106" height="1" fill="#595959"/><rect x="405" y="389" width="22" height="1" fill="#0042FE"/><rect x="427" y="389" width="21" height="1" fill="#000000"/><rect x="277" y="390" width="22" height="1" fill="#000000"/><rect x="299" y="390" width="106" height="1" fill="#595959"/><rect x="405" y="390" width="22" height="1" fill="#0042FE"/><rect x="427" y="390" width="21" height="1" fill="#000000"/><rect x="277" y="391" width="22" height="1" fill="#000000"/><rect x="299" y="391" width="106" height="1" fill="#595959"/><rect x="405" y="391" width="22" height="1" fill="#0042FE"/><rect x="427" y="391" width="21" height="1" fill="#000000"/><rect x="277" y="392" width="22" height="1" fill="#000000"/><rect x="299" y="392" width="106" height="1" fill="#595959"/><rect x="405" y="392" width="22" height="1" fill="#0042FE"/><rect x="427" y="392" width="21" height="1" fill="#000000"/><rect x="277" y="393" width="22" height="1" fill="#000000"/><rect x="299" y="393" width="106" height="1" fill="#595959"/><rect x="405" y="393" width="22" height="1" fill="#0042FE"/><rect x="427" y="393" width="21" height="1" fill="#000000"/><rect x="277" y="394" width="22" height="1" fill="#000000"/><rect x="299" y="394" width="106" height="1" fill="#595959"/><rect x="405" y="394" width="22" height="1" fill="#0042FE"/><rect x="427" y="394" width="21" height="1" fill="#000000"/><rect x="277" y="395" width="22" height="1" fill="#000000"/><rect x="299" y="395" width="106" height="1" fill="#595959"/><rect x="405" y="395" width="22" height="1" fill="#0042FE"/><rect x="427" y="395" width="21" height="1" fill="#000000"/><rect x="277" y="396" width="22" height="1" fill="#000000"/><rect x="299" y="396" width="106" height="1" fill="#595959"/><rect x="405" y="396" width="22" height="1" fill="#0042FE"/><rect x="427" y="396" width="21" height="1" fill="#000000"/><rect x="277" y="397" width="22" height="1" fill="#000000"/><rect x="299" y="397" width="106" height="1" fill="#595959"/><rect x="405" y="397" width="22" height="1" fill="#0042FE"/><rect x="427" y="397" width="21" height="1" fill="#000000"/><rect x="277" y="398" width="22" height="1" fill="#000000"/><rect x="299" y="398" width="106" height="1" fill="#595959"/><rect x="405" y="398" width="22" height="1" fill="#0042FE"/><rect x="427" y="398" width="21" height="1" fill="#000000"/><rect x="277" y="399" width="22" height="1" fill="#000000"/><rect x="299" y="399" width="106" height="1" fill="#595959"/><rect x="405" y="399" width="22" height="1" fill="#0042FE"/><rect x="427" y="399" width="21" height="1" fill="#000000"/><rect x="277" y="400" width="22" height="1" fill="#000000"/><rect x="299" y="400" width="106" height="1" fill="#595959"/><rect x="405" y="400" width="22" height="1" fill="#0042FE"/><rect x="427" y="400" width="21" height="1" fill="#000000"/><rect x="277" y="401" width="22" height="1" fill="#000000"/><rect x="299" y="401" width="106" height="1" fill="#595959"/><rect x="405" y="401" width="22" height="1" fill="#0042FE"/><rect x="427" y="401" width="21" height="1" fill="#000000"/><rect x="277" y="402" width="22" height="1" fill="#000000"/><rect x="299" y="402" width="106" height="1" fill="#595959"/><rect x="405" y="402" width="22" height="1" fill="#0042FE"/><rect x="427" y="402" width="21" height="1" fill="#000000"/><rect x="277" y="403" width="22" height="1" fill="#000000"/><rect x="299" y="403" width="106" height="1" fill="#595959"/><rect x="405" y="403" width="22" height="1" fill="#0042FE"/><rect x="427" y="403" width="21" height="1" fill="#000000"/><rect x="277" y="404" width="22" height="1" fill="#000000"/><rect x="299" y="404" width="106" height="1" fill="#595959"/><rect x="405" y="404" width="22" height="1" fill="#0042FE"/><rect x="427" y="404" width="21" height="1" fill="#000000"/><rect x="299" y="405" width="149" height="1" fill="#000000"/><rect x="299" y="406" width="149" height="1" fill="#000000"/><rect x="299" y="407" width="149" height="1" fill="#000000"/><rect x="299" y="408" width="149" height="1" fill="#000000"/><rect x="299" y="409" width="149" height="1" fill="#000000"/><rect x="299" y="410" width="149" height="1" fill="#000000"/><rect x="299" y="411" width="149" height="1" fill="#000000"/><rect x="299" y="412" width="149" height="1" fill="#000000"/><rect x="299" y="413" width="149" height="1" fill="#000000"/><rect x="299" y="414" width="149" height="1" fill="#000000"/><rect x="299" y="415" width="149" height="1" fill="#000000"/><rect x="299" y="416" width="149" height="1" fill="#000000"/><rect x="299" y="417" width="149" height="1" fill="#000000"/><rect x="299" y="418" width="149" height="1" fill="#000000"/><rect x="299" y="419" width="149" height="1" fill="#000000"/><rect x="299" y="420" width="149" height="1" fill="#000000"/><rect x="299" y="421" width="149" height="1" fill="#000000"/><rect x="299" y="422" width="149" height="1" fill="#000000"/><rect x="299" y="423" width="149" height="1" fill="#000000"/><rect x="299" y="424" width="149" height="1" fill="#000000"/><rect x="299" y="425" width="149" height="1" fill="#000000"/><rect x="299" y="426" width="149" height="1" fill="#000000"/></svg>